<svg xmlns="http://www.w3.org/2000/svg" width="48" height="48" viewBox="0 0 48 48">
  <path d="M41.805,10.405,32.39,1.147A3.982,3.982,0,0,0,29.585,0H10A4,4,0,0,0,6,4V44a4,4,0,0,0,4,4H39a4,4,0,0,0,4-4V13.257A4.027,4.027,0,0,0,41.805,10.405Zm-2.248.6H33.983a2.006,2.006,0,0,1-2-1.989l-.03-5.487ZM41,44a2,2,0,0,1-2,2H10a2,2,0,0,1-2-2V4a2,2,0,0,1,2-2H22V4h2V2h5.585a2,2,0,0,1,.372.036h-.012l.038,6.986a4.01,4.01,0,0,0,4,3.978h6.991a2.034,2.034,0,0,1,.026.257ZM24,10V8h2v2Zm0,8V16h2v2Zm0-4V12h2v2Zm0-8V4h2V6Zm0,15a2,2,0,0,0-2,2v8a2,2,0,0,0,4,0V23A2,2,0,0,0,24,21Zm1,4H23V23h2ZM22,6h2V8H22Zm0,12h2v2H22Zm0-8h2v2H22Zm0,4h2v2H22Z" fill="#77777c"/>
</svg>
