<svg xmlns="http://www.w3.org/2000/svg" width="48" height="48" viewBox="0 0 48 48">
  <path d="M24,18V16h2v2Zm-2,2h2V18H22ZM26,6V4H24V6Zm0,4V8H24v2Zm0,4V12H24v2Zm-4-2h2V10H22Zm4,11v8a2,2,0,0,1-2,2h0a2,2,0,0,1-2-2V23a1,1,0,0,1,1-1V21h2v1A1,1,0,0,1,26,23Zm-1,0H23v2h2Zm18-9.743V44a4,4,0,0,1-4,4H10a4,4,0,0,1-4-4V4a4,4,0,0,1,4-4H29.585A3.982,3.982,0,0,1,32.39,1.147l9.415,9.258A4.027,4.027,0,0,1,43,13.257ZM31.953,3.524l.03,5.487a2.006,2.006,0,0,0,2,1.989h5.574ZM41,13.257A2.034,2.034,0,0,0,40.974,13H33.983a4.01,4.01,0,0,1-4-3.978l-.038-6.986h.012A2,2,0,0,0,29.585,2H24V4H22V2H10A2,2,0,0,0,8,4V44a2,2,0,0,0,2,2H39a2,2,0,0,0,2-2ZM22,8h2V6H22Zm0,8h2V14H22Z" fill="#77777c"/>
</svg>
