<svg xmlns="http://www.w3.org/2000/svg" width="48" height="48" viewBox="0 0 48 48">
  <path d="M46.805,10.405,37.39,1.147A3.982,3.982,0,0,0,34.585,0H15a4,4,0,0,0-4,4v6H1a1,1,0,0,0-1,1V22a1,1,0,0,0,1,1H11V44a4,4,0,0,0,4,4H44a4,4,0,0,0,4-4V13.257A4.027,4.027,0,0,0,46.805,10.405Zm-2.248.6H38.983a2.006,2.006,0,0,1-2-1.989l-.03-5.487ZM9.634,17.57a2.675,2.675,0,0,1-.473,1.319,2.8,2.8,0,0,1-1.069.906,3.4,3.4,0,0,1-1.514.327,3.458,3.458,0,0,1-1.773-.437,2.923,2.923,0,0,1-1.157-1.247,4.267,4.267,0,0,1-.407-1.94v-.005a4.245,4.245,0,0,1,.407-1.937,2.905,2.905,0,0,1,1.157-1.242,3.467,3.467,0,0,1,1.773-.435,3.363,3.363,0,0,1,1.514.33,2.794,2.794,0,0,1,1.067.907,2.7,2.7,0,0,1,.47,1.319l.005.049H8.2L8.184,15.4a1.711,1.711,0,0,0-.3-.675,1.476,1.476,0,0,0-.543-.446,1.738,1.738,0,0,0-.767-.16,1.654,1.654,0,0,0-.975.289,1.853,1.853,0,0,0-.638.817,3.19,3.19,0,0,0-.225,1.261v0a3.264,3.264,0,0,0,.225,1.274,1.857,1.857,0,0,0,.64.825,1.665,1.665,0,0,0,.973.288,1.74,1.74,0,0,0,.752-.156,1.476,1.476,0,0,0,.553-.449,1.8,1.8,0,0,0,.315-.71l.01-.048H9.639Zm2.512,2.306a2.264,2.264,0,0,1-.975-.7,1.94,1.94,0,0,1-.395-1.1l0-.078h1.383l.01.053a.861.861,0,0,0,.244.469,1.326,1.326,0,0,0,.512.3,2.166,2.166,0,0,0,.713.109,2,2,0,0,0,.7-.109,1,1,0,0,0,.454-.311.728.728,0,0,0,.16-.468v0a.649.649,0,0,0-.279-.556,2.5,2.5,0,0,0-.929-.332L13,17a3.094,3.094,0,0,1-1.56-.7,1.69,1.69,0,0,1-.526-1.287V15a1.873,1.873,0,0,1,.349-1.116,2.26,2.26,0,0,1,.946-.742,3.364,3.364,0,0,1,1.378-.267,3.527,3.527,0,0,1,1.4.254,2.169,2.169,0,0,1,.92.714,1.994,1.994,0,0,1,.363,1.074l.005.088H14.9l-.01-.059a.839.839,0,0,0-.207-.47,1.129,1.129,0,0,0-.448-.3,1.982,1.982,0,0,0-1.285,0,.922.922,0,0,0-.416.3.713.713,0,0,0-.142.438v0a.629.629,0,0,0,.281.537,2.358,2.358,0,0,0,.883.322l.742.15a3.308,3.308,0,0,1,1.613.692,1.677,1.677,0,0,1,.512,1.3v0a2.011,2.011,0,0,1-.338,1.166,2.168,2.168,0,0,1-.97.763,3.886,3.886,0,0,1-1.515.269A3.908,3.908,0,0,1,12.146,19.876ZM46,44a2,2,0,0,1-2,2H15a2,2,0,0,1-2-2V23H26a1,1,0,0,0,1-1V11a1,1,0,0,0-1-1H13V4a2,2,0,0,1,2-2H34.585a2,2,0,0,1,.372.036h-.012l.038,6.986a4.01,4.01,0,0,0,4,3.978h6.991a2.034,2.034,0,0,1,.026.257ZM17.288,13h1.62l1.6,5.5h.029l1.6-5.5h1.625l-2.343,7h-1.79Z" fill="#7373e5"/>
</svg>
