<svg xmlns="http://www.w3.org/2000/svg" width="48" height="48" viewBox="0 0 48 48">
  <path d="M41.805,10.405,32.39,1.147A3.982,3.982,0,0,0,29.585,0H10A4,4,0,0,0,6,4V44a4,4,0,0,0,4,4H39a4,4,0,0,0,4-4V13.257A4.027,4.027,0,0,0,41.805,10.405Zm-2.248.6H33.983a2.006,2.006,0,0,1-2-1.989l-.03-5.487ZM41,44a2,2,0,0,1-2,2H10a2,2,0,0,1-2-2V4a2,2,0,0,1,2-2H29.585a2,2,0,0,1,.372.036h-.012l.038,6.986a4.01,4.01,0,0,0,4,3.978h6.991a2.034,2.034,0,0,1,.026.257ZM23,13H11V11H23Zm12,5H11V16H35Zm3,5H14V21H38Zm-6,5H17V26H32Zm3,5H11V31H35Zm3,5H14V36H38Zm-6,5H17V41H32Z" fill="#0075a4"/>
</svg>
