<svg xmlns="http://www.w3.org/2000/svg" width="48" height="48" viewBox="0 0 48 48">
  <path d="M36.141,39.215A7.72,7.72,0,0,1,28.43,31.5a5.154,5.154,0,0,1,5.147-5.148,3.568,3.568,0,0,1,3.564,3.564,1,1,0,1,1-2,0,1.566,1.566,0,0,0-1.564-1.564A3.152,3.152,0,0,0,30.43,31.5a5.718,5.718,0,0,0,5.711,5.712A9.871,9.871,0,0,0,46,27.355a16.59,16.59,0,0,0-16.57-16.57A27.461,27.461,0,0,0,2,38.215a1,1,0,0,1-2,0A29.463,29.463,0,0,1,29.43,8.785,18.592,18.592,0,0,1,48,27.355,11.873,11.873,0,0,1,36.141,39.215Z" fill="#e52e2e"/>
</svg>
