<svg xmlns="http://www.w3.org/2000/svg" width="48" height="48" viewBox="0 0 48 48">
  <path d="M23.909,47.909C8.212,47.909,0,35.9,0,24.03,0,10.159,10.119.091,24.061.091,39.777.091,48,12.1,48,23.97,48,37.841,37.868,47.909,23.909,47.909Zm.152-45.818C11.072,2.091,2,11.113,2,24.03,2,34.9,9.525,45.909,23.909,45.909,36.916,45.909,46,36.888,46,23.97,46,13.1,38.464,2.091,24.061,2.091Zm.273,41.741c-8.344,0-14.172-8.381-14.172-20.38,0-12.075,5.047-19.284,13.5-19.284,8.346,0,14.174,8.38,14.174,20.38C37.839,36.623,32.79,43.832,24.334,43.832ZM23.665,6.168c-10.382,0-11.5,12.087-11.5,17.284,0,10.822,5.005,18.38,12.172,18.38,10.384,0,11.505-12.087,11.505-17.284C35.839,13.726,30.833,6.168,23.665,6.168Z" fill="#5ccc94"/>
</svg>
