<svg class="cd2h-logo" xmlns="http://www.w3.org/2000/svg" width="99" height="48" viewBox="0 0 99 48">
  <path d="M31.672,0h7.215V7.214H31.672Z" fill="#00a4e2"/>
  <path d="M49.176,7.706H56.39V14.92H49.176Z" fill="#7fcdea"/>
  <path d="M67.407,4.665h7.215V11.88H67.407Z" fill="#088baa"/>
  <path d="M84.636,8.463h7.215v7.214H84.636Z" fill="#25bdef"/>
  <path d="M79.952,19h7.214v7.214H79.952Z" fill="#0098c6"/>
  <path d="M91.667,30.246h7.215V37.46H91.667Z" fill="#e41f18"/>
  <path d="M80.193,35.133h7.214v7.214H80.193Z" fill="#b7e1ef"/>
  <path d="M46.029,31.745a7.136,7.136,0,0,0-1.557-2.338,7.419,7.419,0,0,0-2.409-1.6,8.287,8.287,0,0,0-3.2-.593H36.612V41.99h1.745a9.745,9.745,0,0,0,3.735-.645,7.45,7.45,0,0,0,2.563-1.692,6.536,6.536,0,0,0,1.48-2.376,8.047,8.047,0,0,0,.448-2.7h0A7.319,7.319,0,0,0,46.029,31.745Z" fill="#00a4e2"/>
  <path d="M0,19.793V48H72.386V19.793ZM18.573,43.687a9.8,9.8,0,0,1-4.607,1.046,9.125,9.125,0,0,1-3.518-.714,9.765,9.765,0,0,1-5.267-5.2A10.284,10.284,0,0,1,4.347,34.6a10.823,10.823,0,0,1,.728-3.975A9.915,9.915,0,0,1,7.089,27.4a9.271,9.271,0,0,1,3.075-2.149,9.68,9.68,0,0,1,3.908-.781,9.974,9.974,0,0,1,4.367.834,8.791,8.791,0,0,1,2.891,2.231l-1.99,1.774a7.483,7.483,0,0,0-2.309-1.624,7.041,7.041,0,0,0-2.891-.579,6.9,6.9,0,0,0-2.7.535,6.807,6.807,0,0,0-2.231,1.5,7,7,0,0,0-1.5,2.337,8.132,8.132,0,0,0-.549,3.065A7.91,7.91,0,0,0,7.8,37.87a7.367,7.367,0,0,0,1.653,2.352,6.862,6.862,0,0,0,2.232,1.412,6.544,6.544,0,0,0,2.352.482,7.89,7.89,0,0,0,2.944-.636,7.274,7.274,0,0,0,2.795-2.1l1.928,1.668A8.708,8.708,0,0,1,18.573,43.687Zm12.516-8.208-7.619-.014L28.419,29.2a3.313,3.313,0,0,0,.627-1.065,2.786,2.786,0,0,0,.125-.752,2.026,2.026,0,0,0-.222-1,1.848,1.848,0,0,0-.539-.617,2.077,2.077,0,0,0-.69-.323,2.69,2.69,0,0,0-.65-.092,2.414,2.414,0,0,0-.964.179,1.816,1.816,0,0,0-.665.482,1.927,1.927,0,0,0-.376.713,3.076,3.076,0,0,0-.116.848H23.441a4.269,4.269,0,0,1,.279-1.605A3.3,3.3,0,0,1,24.5,24.8a3.211,3.211,0,0,1,1.162-.7A4.286,4.286,0,0,1,27.1,23.86a4.706,4.706,0,0,1,1.349.2,3.336,3.336,0,0,1,1.176.617,3.135,3.135,0,0,1,.838,1.089,3.7,3.7,0,0,1,.323,1.619,3.961,3.961,0,0,1-.221,1.253,4.261,4.261,0,0,1-.767,1.33L26.53,33.99h4.559Zm17.557,2.926a8.916,8.916,0,0,1-2.111,3.132,10.109,10.109,0,0,1-3.374,2.111,12.291,12.291,0,0,1-4.515.781H33.9V24.814h5a12.194,12.194,0,0,1,4.458.767,9.449,9.449,0,0,1,3.292,2.1,9.02,9.02,0,0,1,2.029,3.1,10.541,10.541,0,0,1-.029,7.624Zm18.737,6H64.694V35.971H55.287V44.41H52.6V24.8h2.689v8.627h9.407V24.8h2.689Z" fill="#00a4e2"/>
</svg>
