<svg class="digital-scholar-logo" xmlns="http://www.w3.org/2000/svg" width="127" height="42" viewBox="0 0 127 42">
  <path class="digits" d="M21.636,18.52V1h2.47V18.52Zm29.354,0V1h2.47V18.52Zm15,4.579a8.732,8.732,0,0,1,8.8,9.118,8.8,8.8,0,1,1-17.595,0A8.732,8.732,0,0,1,65.988,23.1Zm0,16.037c3.262,0,6.326-2.347,6.326-6.919s-3.064-6.894-6.326-6.894-6.326,2.323-6.326,6.894S62.726,39.136,65.988,39.136Z" fill="#2929cc"/>
  <path d="M2.042,18.52V1H8.171C12.619,1,16.5,4.039,16.5,9.8c0,5.733-3.929,8.723-8.377,8.723Zm6.005-2.149C11.283,16.371,14,14.2,14,9.8,14,5.374,11.334,3.151,8.1,3.151H4.464v13.22ZM43.554,18.52l-.222-2.471a6.235,6.235,0,0,1-5.61,2.842c-4.4,0-8.5-3.212-8.5-9.143S33.57.63,37.894.63a7.794,7.794,0,0,1,7.76,5.287l-2.2.939a5.528,5.528,0,0,0-5.561-4c-3.137,0-6.2,2.248-6.2,6.894s2.966,6.943,6.1,6.943c3.905,0,5.312-2.767,5.412-4.57H37.129V9.946h8.377V18.52ZM66.087,3.249V18.52H63.665V3.249H57.808V1H71.943V3.249Zm18.68,10.379H77.008L75.155,18.52H72.56L79.528,1H82.32l6.969,17.52h-2.62Zm-6.895-2.249H83.9l-3.04-7.858Zm15.74,7.141V1h2.421V16.247h8.278V18.52ZM10.864,28.214a3.555,3.555,0,0,0-3.707-2.99A3.1,3.1,0,0,0,3.772,28.14,2.537,2.537,0,0,0,6.02,30.685l2.62.568c2.916.643,4.547,2.471,4.547,4.919,0,2.717-2.323,5.188-6.055,5.188-4.226,0-6.226-2.718-6.548-5.214l2.322-.741a3.982,3.982,0,0,0,4.2,3.756c2.421,0,3.607-1.26,3.607-2.792,0-1.26-.864-2.348-2.619-2.718l-2.5-.544c-2.495-.544-4.275-2.175-4.275-4.794A5.584,5.584,0,0,1,7.108,23.1c3.953,0,5.535,2.446,5.93,4.349Zm6.275,4a8.684,8.684,0,0,1,8.7-9.118c4,0,6.819,2.175,7.709,5.56l-2.249.79a5.188,5.188,0,0,0-5.46-4.126c-3.188,0-6.228,2.323-6.228,6.894s3.04,6.919,6.228,6.919a5.568,5.568,0,0,0,5.584-4.2l2.15.79a7.649,7.649,0,0,1-7.734,5.634C21.315,41.36,17.139,38.074,17.139,32.217Zm32.542,8.772V33.206H40.736v7.783H38.314V23.469h2.422v7.489h8.945V23.469H52.1v17.52Zm30.193,0V23.469H82.3V38.716h8.278v2.273ZM105.226,36.1h-7.76l-1.852,4.892H93.019l6.968-17.52h2.792l6.968,17.52h-2.619Zm-6.895-2.249h6.03l-3.04-7.858Zm20.8-.024h-2.619v7.165h-2.446V23.469h6.6a5.074,5.074,0,0,1,5.362,5.214,4.906,4.906,0,0,1-4.25,4.968l4.177,7.338h-2.818Zm1.088-2.175c1.976,0,3.311-1.161,3.311-2.966a3,3,0,0,0-3.311-3.039h-3.707v6.005Z" fill="#111"/>
</svg>
