<svg xmlns="http://www.w3.org/2000/svg" width="203" height="38" viewBox="0 0 203 38">
  <path class="colorize" fill="#097e95" d="M47.936,29.088H58.5a.864.864,0,0,0,0-1.728H48.9V21.48h8.4a.86.86,0,0,0,.864-.864.876.876,0,0,0-.864-.864H48.9V14.016h9.48a.864.864,0,1,0,0-1.728H47.936a.958.958,0,0,0-.936.96v14.88a.958.958,0,0,0,.936.96Zm18.144-.96a.959.959,0,0,0,.937.96h9.672a.86.86,0,0,0,.864-.864.881.881,0,0,0-.864-.888H67.977V13.128a.949.949,0,1,0-1.9,0Zm18.793.96h10.56a.864.864,0,1,0,0-1.728h-9.6V21.48h8.4a.86.86,0,0,0,.864-.864.876.876,0,0,0-.864-.864h-8.4V14.016h9.48a.864.864,0,1,0,0-1.728H84.873a.958.958,0,0,0-.936.96v14.88a.958.958,0,0,0,.936.96Zm25.825.288a8.6,8.6,0,0,0,6.24-2.472.9.9,0,0,0,.312-.672.944.944,0,0,0-.912-.912.871.871,0,0,0-.6.264,6.882,6.882,0,0,1-4.992,2.04,6.63,6.63,0,0,1-6.5-6.936V20.64a6.588,6.588,0,0,1,6.5-6.888,6.878,6.878,0,0,1,4.824,1.92,1.133,1.133,0,0,0,.624.216.974.974,0,0,0,.96-.936,1.039,1.039,0,0,0-.384-.768,8.689,8.689,0,0,0-6-2.184,8.465,8.465,0,0,0-8.5,8.688v.048a8.38,8.38,0,0,0,8.425,8.64Zm17.472-1.128a.96.96,0,1,0,1.92,0V14.04h4.872a.881.881,0,0,0,.888-.864.9.9,0,0,0-.888-.888H123.3a.9.9,0,0,0-.888.888.881.881,0,0,0,.888.864h4.872Zm14.112,0a.948.948,0,1,0,1.9,0V22.56H149l4.728,6.144a1.1,1.1,0,0,0,.888.5.992.992,0,0,0,.96-.936,1.031,1.031,0,0,0-.312-.7L151.091,22.2c2.616-.5,4.488-2.112,4.488-4.872V17.28a4.64,4.64,0,0,0-1.3-3.312,6.624,6.624,0,0,0-4.776-1.68h-6.289a.958.958,0,0,0-.936.96Zm1.9-7.392V14.04h5.185c2.712,0,4.3,1.248,4.3,3.312V17.4c0,2.16-1.8,3.456-4.32,3.456Zm26.257,8.52a8.512,8.512,0,0,0,8.592-8.688V20.64a8.569,8.569,0,1,0-17.136.048v.048a8.432,8.432,0,0,0,8.544,8.64Zm.048-1.752a6.68,6.68,0,0,1-6.624-6.936V20.64a6.6,6.6,0,0,1,6.576-6.888,6.68,6.68,0,0,1,6.624,6.936v.048a6.6,6.6,0,0,1-6.576,6.888Zm15.553.648a.924.924,0,1,0,1.848,0V15.264L198.3,28.584a1.3,1.3,0,0,0,.984.576h.1a.852.852,0,0,0,.864-.888V13.1a.924.924,0,1,0-1.848,0V25.776L188.2,12.768a1.16,1.16,0,0,0-.96-.552h-.264a.953.953,0,0,0-.936.936ZM27.315,31.793a27.346,27.346,0,0,1-12.929-3.926,31.046,31.046,0,0,1-7.4-5.786.713.713,0,1,1,1.05-.964,29.661,29.661,0,0,0,7.055,5.514c6.087,3.481,12.676,4.669,16.135,2.992A2.538,2.538,0,0,1,31,28.567a2.572,2.572,0,1,1,1.193,2.16A10.11,10.11,0,0,1,27.315,31.793Zm5.534-2.346a1.16,1.16,0,0,0,.727.255,1.135,1.135,0,1,0-1.153-1.135,1.123,1.123,0,0,0,.243.7A.707.707,0,0,1,32.849,29.447ZM5.078,19.058A.714.714,0,0,1,4.46,18.7c-1.653-2.857-1.931-5.515-.782-7.485C5.223,8.567,8.994,7.569,14.022,8.474a.712.712,0,1,1-.253,1.4c-4.34-.782-7.653-.012-8.86,2.06-.88,1.509-.6,3.658.785,6.053a.713.713,0,0,1-.616,1.069Zm-.7,12.07A2.557,2.557,0,0,1,3,26.4C2.74,21.946,7.328,16.153,14.4,12.108a31.236,31.236,0,0,1,8.842-3.47.713.713,0,1,1,.3,1.394,29.728,29.728,0,0,0-8.431,3.314C8.761,16.975,4.422,22.168,4.415,26.008a2.56,2.56,0,0,1-.039,5.12Zm0-3.695a1.135,1.135,0,1,0,1.153,1.134A1.144,1.144,0,0,0,4.376,27.433ZM31,21.731a.713.713,0,0,1-.541-1.175c2.836-3.319,3.812-6.532,2.609-8.6C32.2,10.476,30.224,9.639,27.5,9.6a.713.713,0,0,1,.01-1.425h.009c3.239.041,5.644,1.13,6.771,3.064,1.544,2.65.539,6.382-2.757,10.238A.711.711,0,0,1,31,21.731Zm-12,15.78c-3.087,0-5.845-2.734-7.567-7.5a.713.713,0,0,1,1.34-.485c1.484,4.106,3.812,6.557,6.227,6.557,1.718,0,3.426-1.255,4.81-3.534a.713.713,0,0,1,1.218.74C23.369,36.012,21.229,37.511,18.993,37.511Zm7.193-7.9a.7.7,0,0,1-.215-.033.713.713,0,0,1-.465-.894A29.242,29.242,0,0,0,26.759,20c0-7.1-2.317-13.394-5.593-15.421A2.58,2.58,0,0,1,16.416,3.2a2.578,2.578,0,0,1,5.155-.035C25.487,5.286,28.184,12.085,28.184,20a30.692,30.692,0,0,1-1.319,9.114A.713.713,0,0,1,26.186,29.612ZM18.993,2.068A1.135,1.135,0,1,0,20.146,3.2,1.145,1.145,0,0,0,18.993,2.068Zm0,20.335a2.421,2.421,0,0,1-2.364-1.894,2.377,2.377,0,0,1,.327-1.8,2.424,2.424,0,0,1,4.4.786,2.373,2.373,0,0,1-.327,1.8A2.4,2.4,0,0,1,19.5,22.349h0A2.394,2.394,0,0,1,18.993,22.4Zm.361-.751h0Zm-.36-2.629a1.025,1.025,0,0,0-.212.022.991.991,0,0,0-.628.433.958.958,0,0,0-.132.728,1,1,0,0,0,1.81.317.954.954,0,0,0,.132-.728A.99.99,0,0,0,18.994,19.023Z"/>
</svg>
