<svg xmlns="http://www.w3.org/2000/svg" width="302" height="64" viewBox="0 0 302 64">
  <path class="colorize" d="M28.3299,33.6492c3.1468,1.8162,4.7202,2.7243,6.4481,2.7258,1.728.0015,3.3029-.9038,6.4529-2.7145l20.0792-11.5421c.9065-.5211,1.4653-1.4869,1.4653-2.5325s-.5588-2.0114-1.4653-2.5324l-20.0865-11.5463c-3.1465-1.8088-4.7198-2.7131-6.4461-2.7125-1.7262.0007-3.2988.9063-6.444,2.7175L11.0658,15.4561c-.1279.0737-.1919.1105-.2516.1455C4.9157,19.0545,1.2715,25.3585,1.2227,32.1932c-.0005.0691-.0005.143-.0005.2906,0,.1475,0,.2213.0005.2903.0486,6.827,3.6848,13.1251,9.5728,16.5808.0595.035.1234.0719.2511.1456l10.8165,6.2451c6.3027,3.639,9.454,5.4585,12.9147,5.4597,3.4607.0011,6.6133-1.8162,12.9184-5.451l11.4183-6.5823c3.1571-1.82,4.7356-2.73,5.6024-4.2302.8668-1.5002.8668-3.3222.8668-6.9664v-7.0398c0-1.0109-.5475-1.9426-1.4307-2.4345-.8547-.476-1.8964-.4689-2.7446.0186l-23.4132,13.4586c-1.5708.903-2.3563,1.3545-3.2182,1.3548-.8619.0002-1.6476-.4508-3.2191-1.3528l-15.8465-9.0963c-.7938-.4557-1.1907-.6835-1.5095-.7246-.7268-.0938-1.4256.3133-1.7025.9919-.1214.2975-.1189.7552-.114,1.6704.0036.6738.0054,1.0107.0684,1.3206.141.694.5061,1.3224,1.0392,1.7886.238.2082.5298.3766,1.1134.7134l16.9426,9.7786c1.5755.9093,2.3633,1.364,3.2283,1.3642.865.0003,1.653-.454,3.229-1.3624l20.7666-11.9707c.5384-.3103.8075-.4655,1.0093-.3489.2019.1166.2019.4273.2019,1.0487v3.1931c0,.911,0,1.3665-.2168,1.7416-.2167.3751-.6113.6025-1.4006,1.0575l-17.1285,9.8735c-3.1533,1.8177-4.7299,2.7265-6.4606,2.7258-1.7307-.0008-3.3065-.9111-6.4581-2.7317l-16.0251-9.2571c-.0509-.0294-.0763-.0441-.1001-.0579-3.36-1.9635-5.4333-5.5555-5.4528-9.4471-.0001-.0275-.0001-.0569-.0001-.1156v-2.9311c0-2.1483,1.1442-4.1341,3.0029-5.2114,1.6424-.952,3.6682-.9539,5.3124-.005l13.2732,7.6608ZM108.362,47.1057c-10.3639,0-16.616-6.1681-16.616-15.1057,0-8.8117,6.294-15.1057,16.658-15.1057,9.399,0,14.477,4.5317,14.896,10.4901h-6.084c-.294-2.3918-2.392-5.3709-8.476-5.3709h-.671c-6.295,0-10.4905,3.6505-10.4905,9.9865s4.2795,9.9866,10.4905,9.9866h.671c6.126,0,9.441-2.8533,9.441-5.2451v-.3357h-9.651v-5.1191h11.203c2.56,0,3.987,1.4686,3.987,4.0282v11.3712h-5.539v-3.2729c-1.133,1.4267-4.112,3.6925-9.819,3.6925ZM133.009,46.6861h-5.791v-29.3722h5.791v29.3722ZM153.544,46.6861h-5.79v-24.253h-11.833v-5.1192h29.456v5.1192h-11.833v24.253ZM185.484,46.6861h-17.204v-29.3722h16.701c5.245,0,9.273,2.9372,9.273,7.7627,0,3.3568-2.14,5.7485-4.658,6.6717,3.021.6713,5.371,3.147,5.371,6.9654,0,4.8674-4.238,7.9724-9.483,7.9724ZM174.071,22.4331v6.7975h10.28c2.56,0,4.07-1.1749,4.07-3.5246,0-1.9302-1.51-3.2729-4.07-3.2729h-10.28ZM174.071,34.3498v7.2172h10.574c2.769,0,4.49-1.4267,4.49-3.6506,0-2.3917-1.721-3.5666-4.49-3.5666h-10.574ZM214.115,47.1057c-9.525,0-16.659-5.7066-16.659-15.1057s7.134-15.1057,16.659-15.1057,16.616,5.7066,16.616,15.1057-7.092,15.1057-16.616,15.1057ZM213.779,41.9866h.671c5.665,0,10.448-3.6506,10.448-9.9866s-4.783-9.9865-10.448-9.9865h-.671c-5.665,0-10.49,3.6505-10.49,9.9865s4.825,9.9866,10.49,9.9866ZM249.561,47.1057c-9.525,0-16.658-5.7066-16.658-15.1057s7.133-15.1057,16.658-15.1057,16.616,5.7066,16.616,15.1057-7.091,15.1057-16.616,15.1057ZM249.225,41.9866h.672c5.664,0,10.448-3.6506,10.448-9.9866s-4.784-9.9865-10.448-9.9865h-.672c-5.664,0-10.49,3.6505-10.49,9.9865s4.826,9.9866,10.49,9.9866ZM298.778,46.6861h-7.637l-12.001-13.2594-4.196,3.5666v9.6928h-5.79v-29.3722h5.79v12.9657l15.148-12.9657h8.014l-14.686,12.5042,15.358,16.868Z" fill="#181c1f"/>
</svg>
