<svg class="mellon-logo" xmlns="http://www.w3.org/2000/svg" width="192" height="41" viewBox="0 0 192 41">
  <path d="M102.056,18.89v.095H97.69V18.89c.759-.214,1.211-.808,1.211-3.3V3.749L92.137,18.985H91.59L84.638,4.2V14.617c0,3.3.688,4.034,2.112,4.272v.1h-4.5v-.1c1.281-.238,2.017-.973,2.017-4.272V4.6a2.424,2.424,0,0,0-1.946-2.681V1.827h3.361l7,15,6.676-15h2.64v.095c-.736.19-1.074.878-1.074,3.491V15.591C100.916,18.086,101.319,18.676,102.056,18.89Zm10.869-2.652a4.688,4.688,0,0,1-4.557,2.895c-3.441,0-5.838-2.729-5.838-6.407,0-3.773,2.421-6.408,5.677-6.408a4.356,4.356,0,0,1,4.628,4.533,3.5,3.5,0,0,1-.095.872h-8.317c0,3.749,2.208,5.909,5.055,5.909a4.149,4.149,0,0,0,3.37-1.452Zm-8.5-4.8h6.627a4.711,4.711,0,0,0,.094-1.092c0-2.182-.878-3.726-2.943-3.726S104.524,8.566,104.423,11.438Zm13.153,7.476v.071h-4.249v-.071c.9-.286,1.188-.69,1.188-2.612V3.868c0-2.065-.333-2.657-1.163-2.943l.024-.071A7.714,7.714,0,0,0,116.531,0l.047.024a24.587,24.587,0,0,0-.213,3.844V16.3C116.365,18.248,116.7,18.676,117.576,18.914Zm5.623,0v.071h-4.248v-.071c.9-.286,1.188-.69,1.188-2.612V3.868c0-2.065-.331-2.657-1.161-2.943L119,.854A7.751,7.751,0,0,0,122.157,0l.047.024a24.52,24.52,0,0,0-.214,3.844V16.3C121.989,18.248,122.321,18.676,123.2,18.914Zm16.755,0v.071H135.66v-.071c.924-.286,1.21-.69,1.21-2.612V10.181c0-2.065-.334-2.64-1.164-2.943l.024-.047a8.621,8.621,0,0,0,3.156-.88l.048.048a21.061,21.061,0,0,0-.214,3.828v6.122C138.72,18.177,139.053,18.676,139.954,18.914Zm8.283,0v.071h-4.3v-.071c.9-.238,1.258-.737,1.258-2.612V11.035c0-2.421-1.115-3.632-2.966-3.632a3.516,3.516,0,0,0-3.014,1.946l-.024-.024a4.332,4.332,0,0,1,4.035-3.014c2.4,0,3.8,1.639,3.8,4.059V16.3C147.027,18.224,147.31,18.628,148.237,18.914Zm-12.79-6.2c0,3.726-2.3,6.407-5.957,6.407-3.678,0-5.981-2.681-5.981-6.407,0-3.464,2.3-6.408,5.981-6.408C133.146,6.311,135.447,9.255,135.447,12.719Zm-2.042,0c0-3.535-1.566-6.1-3.915-6.1-2.377,0-3.939,2.564-3.939,6.1,0,3.821,1.566,6.123,3.939,6.123,2.35,0,3.917-2.3,3.917-6.123ZM93.584,27.327l-.095.047c-.759-3.251-2.016-4.414-4.723-4.414H85.611v7.831h2.772c2.515,0,3.086-.712,3.417-2.112H91.9v4.984H91.8c-.331-1.614-.9-2.563-3.417-2.563H85.611v4.936c0,2.847.474,3.441,1.376,3.678v.095H82.455v-.095c.711-.214,1.139-.807,1.139-3.346V26.088c0-2.538-.428-3.132-1.139-3.345v-.095H93.371Zm49.693,11.838v.043a8.5,8.5,0,0,0-2.966.735l-.024-.023V31.735c0-3.06-1.28-4.295-3.274-4.295-2.183,0-3.8,1.923-3.8,6,0,3.655,1.47,5.413,3.653,5.413a3.353,3.353,0,0,0,2.9-1.946l.024.024a4.182,4.182,0,0,1-3.892,3.014c-2.824,0-4.7-2.468-4.7-5.862,0-4.864,2.7-6.953,5.809-6.953a4.443,4.443,0,0,1,3.274,1.306V24.687c0-2.065-.356-2.659-1.188-2.943l.047-.071a8.019,8.019,0,0,0,3.155-.854l.024.023a24.527,24.527,0,0,0-.214,3.845v11.6C142.114,38.429,142.47,38.9,143.277,39.165Zm11.021,0v.044a8.525,8.525,0,0,0-2.943.735l-.047-.023V33.256L146.3,34.708a2.844,2.844,0,0,0-.356,1.424,2.407,2.407,0,0,0,2.492,2.681,2.586,2.586,0,0,0,2.444-1.423l.047.024a3.378,3.378,0,0,1-3.392,2.539,3.2,3.2,0,0,1-3.394-3.228,3.064,3.064,0,0,1,.57-1.848l6.6-1.97v-.815c0-3.3-.879-4.65-2.729-4.65-1.472,0-2.966,1.115-3.062,4.342l-.047.023-.736-3.226a5.753,5.753,0,0,1,3.845-1.452c2.824,0,4.58,1.684,4.58,5.078v4.082C153.159,38.429,153.491,38.9,154.3,39.164Zm29.171.572v.071h-4.3v-.071c.924-.285,1.21-.688,1.21-2.61V31c0-2.065-.332-2.64-1.162-2.943l.024-.047a8.632,8.632,0,0,0,3.156-.878l.048.047A20.865,20.865,0,0,0,182.234,31v6.123C182.234,39,182.567,39.5,183.469,39.736Zm8.281,0v.071h-4.29v-.071c.9-.237,1.258-.735,1.258-2.61V31.855c0-2.42-1.116-3.63-2.968-3.63a3.511,3.511,0,0,0-3.012,1.945l-.024-.023a4.327,4.327,0,0,1,4.034-3.014c2.4,0,3.8,1.637,3.8,4.058v5.933C190.54,39.046,190.825,39.448,191.75,39.736Zm-86.566-6.2c0,3.726-2.3,6.408-5.957,6.408-3.678,0-5.981-2.682-5.981-6.408,0-3.464,2.3-6.406,5.981-6.406C102.881,27.129,105.184,30.071,105.184,33.531Zm-2.042,0c0-3.535-1.565-6.1-3.915-6.1-2.376,0-3.939,2.564-3.939,6.1,0,3.821,1.567,6.123,3.939,6.123C101.577,39.658,103.142,37.36,103.142,33.531Zm61.5,3.593V31a22.9,22.9,0,0,1,.194-3.726h-7.551V25.258l-.095-.047a6.91,6.91,0,0,1-2.516,2.207v.143h.831v8.471c0,2.634,1.233,3.915,3.322,3.915a2.9,2.9,0,0,0,2.918-2.254l-.071-.024A2.117,2.117,0,0,1,159.519,39c-1.329,0-2.231-.806-2.231-3.18V27.561h2.991c1.537,0,2.509.179,2.509,4.2v5.361c0,1.922-.284,2.324-1.21,2.61v.071h4.247v-.069C164.953,39.5,164.645,39.076,164.645,37.124Zm-.981-11.913a1.223,1.223,0,1,0-1.222-1.223A1.224,1.224,0,0,0,163.664,25.211ZM114.72,36.877a3.452,3.452,0,0,1-2.99,1.946c-1.848,0-2.966-1.211-2.966-3.631v-4.2a23.331,23.331,0,0,1,.213-3.821l-.023-.047A8.421,8.421,0,0,1,105.8,28l-.048.048c.831.309,1.188.878,1.188,2.943v4.864c0,2.4,1.4,4.058,3.774,4.058a4.369,4.369,0,0,0,4.058-3.013Zm6.6.237V30.992a21.04,21.04,0,0,1,.213-3.821l-.047-.047a8.689,8.689,0,0,1-3.156.877l-.024.048c.83.309,1.163.878,1.163,2.943v6.122a4.756,4.756,0,0,1-.245,1.893,1.039,1.039,0,0,1-1.888,0,4.756,4.756,0,0,1-.245-1.893V30.992a20.546,20.546,0,0,1,.214-3.821l-.048-.047A8.275,8.275,0,0,1,114.1,28l-.023.048c.83.309,1.162.878,1.162,2.943v6.122c0,1.875-.332,2.377-1.234,2.61V39.8h8.547v-.072C121.652,39.487,121.321,38.989,121.321,37.114Zm8.3,0V31.182c0-2.421-1.4-4.058-3.8-4.058a4.331,4.331,0,0,0-4.035,3.014l.024.023a3.518,3.518,0,0,1,3.014-1.946c1.848,0,2.966,1.21,2.966,3.631v5.268c0,1.875-.356,2.377-1.258,2.61V39.8h4.3v-.072C129.91,39.439,129.625,39.037,129.625,37.114Zm48.83-3.59c0,3.725-2.3,6.406-5.957,6.406-3.677,0-5.98-2.681-5.98-6.406,0-3.464,2.3-6.407,5.98-6.407C176.153,27.117,178.455,30.06,178.455,33.524Zm-2.041,0c0-3.536-1.566-6.1-3.916-6.1-2.376,0-3.939,2.563-3.939,6.1,0,3.82,1.567,6.122,3.939,6.122C174.848,39.646,176.414,37.344,176.414,33.524ZM3.438,40.261a3.454,3.454,0,0,0,3.416-3.147c.78-10.816,7.93-24.195,16.305-27.008,2.708-.917,4.641.066,4.449,2.885-.13,1.705-2.192,5.638-2.837,7.866-1.933,6.688,2.385,12.128,8.121,12.128,7.41,0,10.829-6.752,11.409-13.5C44.752,13.974,45.4,6.9,50.3,6.9c3.351-.006,4.7,3.6,6.9,9.567,1.612,4.458,6.123,15.8,11.409,22.551a3.41,3.41,0,0,0,4.829.455,3.659,3.659,0,0,0,.452-4.851c-6.51-9.9-8.83-16.519-11.473-23.862-3.48-9.7-8.96-11.143-13.47-10.487C41.466,1.389,38.693,8.529,37.856,18.427c-.65,7.4-3.868,8.98-5.737,7.933-3.158-1.771-.26-7.211.451-9.113,3.739-10.03-1.933-13.962-7.15-13.962C14.656,3.285,2.281,17.772.025,36.39A3.532,3.532,0,0,0,3.438,40.261Z"/>
</svg>
