<svg class="mellon-logo" xmlns="http://www.w3.org/2000/svg" width="119" height="53" viewBox="0 0 119 53">
  <path d="M17.1,20.253l-7.077,8.774L2.9,20.253H0V41.615H3.067V24.993L9.731,33.25H10.3l6.587-8.257V41.615h3.083V20.253Zm7.512,0H36.857v2.726H27.7V29.5h8.843v2.742H27.705v6.645H37.15v2.726H24.612Zm16.718,0h3.025V38.831h9.513v2.784H41.329Zm16.718,0h3.025V38.831h9.513v2.784H58.048Zm25.841,2.956a8,8,0,0,0-8.31,8.291,7.9,7.9,0,0,0,2.347,5.848,8.284,8.284,0,0,0,14.152-5.973,8.069,8.069,0,0,0-8.189-8.166m-.121-2.956a11.214,11.214,0,0,1,8.167,3.189,10.718,10.718,0,0,1,3.263,8,10.54,10.54,0,0,1-3.293,7.957,11.53,11.53,0,0,1-8.3,3.15,10.88,10.88,0,0,1-7.972-3.151A10.641,10.641,0,0,1,72.443,31.5a10.884,10.884,0,0,1,3.21-8.058,11.037,11.037,0,0,1,8.115-3.189m32.156-.135h2.932V41.48H116.2L101.789,25.028V41.48h-2.9V20.118h2.5L115.924,36.71Z" fill-rule="evenodd"/>
  <path class="stroke" d="M16.937,20.253h3.5v1L10.517,33.257H9.948L7.819,31.31Z" fill="#db3737" fill-rule="evenodd"/>
  <path d="M1.931,4.854V.913H.856A.133.133,0,0,1,.723.78V.2A.134.134,0,0,1,.856.07h3.07A.134.134,0,0,1,4.06.2V.78a.133.133,0,0,1-.134.133H2.852V4.854a.139.139,0,0,1-.134.134H2.065A.139.139,0,0,1,1.931,4.854Zm3.179,0V.2A.139.139,0,0,1,5.243.07H5.9A.134.134,0,0,1,6.03.2V2.065H8.32V.2A.134.134,0,0,1,8.454.07H9.1A.139.139,0,0,1,9.233.2v4.65a.138.138,0,0,1-.133.134H8.454a.134.134,0,0,1-.134-.134V2.915H6.03V4.854a.133.133,0,0,1-.133.134H5.243A.139.139,0,0,1,5.11,4.854Zm5.588,0V.2A.134.134,0,0,1,10.831.07H13.69A.134.134,0,0,1,13.824.2V.78a.133.133,0,0,1-.134.133H11.611V2.065h1.735a.139.139,0,0,1,.134.134v.583a.133.133,0,0,1-.134.133H11.611v1.23H13.69a.133.133,0,0,1,.134.133v.576a.133.133,0,0,1-.134.134H10.831A.133.133,0,0,1,10.7,4.854ZM.674,14.174a.124.124,0,0,1-.12-.183L2.739,9.264a.127.127,0,0,1,.12-.078h.07a.12.12,0,0,1,.119.078l2.164,4.727a.124.124,0,0,1-.12.183H4.481a.2.2,0,0,1-.2-.14l-.345-.759h-2.1l-.344.759a.213.213,0,0,1-.2.14Zm1.5-1.679H3.589l-.7-1.545H2.866ZM6.1,14.041V9.313a.133.133,0,0,1,.134-.127h.105a.158.158,0,0,1,.12.05l2.866,3.055h.014V9.39a.133.133,0,0,1,.133-.133h.646a.138.138,0,0,1,.134.133v4.728a.132.132,0,0,1-.134.126h-.1A.152.152,0,0,1,9.9,14.2L7.02,11.02H7.006v3.021a.133.133,0,0,1-.133.133H6.234A.139.139,0,0,1,6.1,14.041Zm5.616,0V9.39a.132.132,0,0,1,.127-.133h1.665a2.459,2.459,0,1,1,0,4.917H11.843A.132.132,0,0,1,11.716,14.041Zm.907-.724h.8A1.527,1.527,0,0,0,15,11.708a1.525,1.525,0,0,0-1.581-1.6h-.8Zm4.527.724V9.39a.133.133,0,0,1,.133-.133h2.009a1.522,1.522,0,0,1,1.532,1.51,1.551,1.551,0,0,1-1.04,1.419l.962,1.784a.133.133,0,0,1-.119.2h-.738a.119.119,0,0,1-.112-.063l-.934-1.862h-.78v1.792a.138.138,0,0,1-.134.133h-.646A.133.133,0,0,1,17.15,14.041Zm.92-2.543h1.145a.716.716,0,0,0,.7-.717.7.7,0,0,0-.7-.681H18.07Zm3.986,2.543V9.39a.134.134,0,0,1,.134-.133h2.859a.133.133,0,0,1,.133.133v.576a.134.134,0,0,1-.133.134H22.97v1.152h1.735a.138.138,0,0,1,.133.133v.583a.134.134,0,0,1-.133.134H22.97v1.229h2.079a.133.133,0,0,1,.133.134v.576a.133.133,0,0,1-.133.133H22.19a.134.134,0,0,1-.134-.133Zm5.2.105L25.93,9.425a.122.122,0,0,1,.127-.168H26.7a.144.144,0,0,1,.126.1l.731,2.8h.028l1.117-2.894a.114.114,0,0,1,.119-.078h.127a.114.114,0,0,1,.119.078l1.124,2.894h.028l.717-2.8a.144.144,0,0,1,.126-.1h.647a.122.122,0,0,1,.126.168L30.51,14.146a.134.134,0,0,1-.126.1h-.112a.119.119,0,0,1-.12-.077L28.9,10.985H28.86l-1.244,3.182a.119.119,0,0,1-.119.077h-.113A.134.134,0,0,1,27.258,14.146Zm8.443,0L34.374,9.425a.122.122,0,0,1,.126-.168h.646a.145.145,0,0,1,.127.1l.73,2.8h.028l1.117-2.894a.114.114,0,0,1,.12-.078h.126a.115.115,0,0,1,.12.078l1.124,2.894h.028l.716-2.8a.144.144,0,0,1,.127-.1h.646a.122.122,0,0,1,.126.168l-1.327,4.721a.135.135,0,0,1-.127.1h-.112a.12.12,0,0,1-.12-.077l-1.257-3.182H37.3l-1.244,3.182a.119.119,0,0,1-.119.077h-.112A.135.135,0,0,1,35.7,14.146Zm5.075-.562a.671.671,0,1,1,.668.667A.678.678,0,0,1,40.776,13.584Zm30.61,38.283V47.216a.133.133,0,0,1,.133-.133h2.859a.133.133,0,0,1,.134.133v.576a.135.135,0,0,1-.134.134H72.3v1.32h1.735a.139.139,0,0,1,.133.134v.576a.138.138,0,0,1-.133.133H72.3v1.778a.138.138,0,0,1-.134.133h-.646A.133.133,0,0,1,71.386,51.867Zm3.9-2.319a2.525,2.525,0,1,1,2.547,2.522H77.8a2.506,2.506,0,0,1-2.522-2.491Zm.913,0a1.612,1.612,0,0,0,3.224,0,1.612,1.612,0,1,0-3.224,0Zm5.265.647V47.216a.138.138,0,0,1,.133-.133h.668a.133.133,0,0,1,.133.133v2.929a1.022,1.022,0,0,0,2.044.007V47.216a.133.133,0,0,1,.134-.133h.667a.139.139,0,0,1,.134.133V50.2a1.958,1.958,0,0,1-3.913,0Zm5.328,1.672V47.139a.132.132,0,0,1,.133-.127h.106a.151.151,0,0,1,.119.05l2.866,3.055h.014v-2.9a.133.133,0,0,1,.134-.133h.646a.138.138,0,0,1,.133.133v4.728a.132.132,0,0,1-.133.126h-.1a.156.156,0,0,1-.12-.049l-2.88-3.175h-.014v3.021a.133.133,0,0,1-.134.133H86.92A.138.138,0,0,1,86.787,51.867Zm5.616,0V47.216a.132.132,0,0,1,.126-.133h1.665a2.459,2.459,0,1,1,0,4.917H92.529a.132.132,0,0,1-.126-.133Zm.906-.724h.8a1.605,1.605,0,0,0,0-3.21h-.8ZM97.26,52a.124.124,0,0,1-.119-.183l2.185-4.727a.127.127,0,0,1,.119-.078h.07a.121.121,0,0,1,.12.078l2.163,4.727a.124.124,0,0,1-.119.183h-.611a.2.2,0,0,1-.2-.14l-.344-.759h-2.1l-.344.759a.213.213,0,0,1-.2.14Zm1.5-1.679h1.412l-.7-1.545h-.021Zm4.4,1.546V47.926H102.09a.134.134,0,0,1-.134-.134v-.576a.133.133,0,0,1,.134-.133h3.069a.133.133,0,0,1,.134.133v.576a.134.134,0,0,1-.134.134h-1.074v3.941a.139.139,0,0,1-.134.133H103.3a.139.139,0,0,1-.134-.133Zm3.179,0V47.216a.138.138,0,0,1,.133-.133h.654a.138.138,0,0,1,.133.133v4.651a.138.138,0,0,1-.133.133h-.654A.138.138,0,0,1,106.343,51.867Zm2.1-2.319a2.526,2.526,0,1,1,2.548,2.522h-.026a2.507,2.507,0,0,1-2.522-2.491v-.031Zm.914,0a1.612,1.612,0,0,0,3.224,0,1.612,1.612,0,1,0-3.224,0Zm5.314,2.319V47.139a.132.132,0,0,1,.133-.127h.105a.152.152,0,0,1,.12.05l2.866,3.055h.014v-2.9a.133.133,0,0,1,.134-.133h.646a.138.138,0,0,1,.133.133v4.728a.132.132,0,0,1-.133.126h-.1a.154.154,0,0,1-.119-.049l-2.88-3.175h-.014v3.021a.133.133,0,0,1-.134.133H114.8A.138.138,0,0,1,114.667,51.867Z" fill="#222224" fill-rule="evenodd"/>
</svg>
