<svg xmlns="http://www.w3.org/2000/svg" width="88" height="32" viewBox="0 0 88 32">
  <path class="colorize" d="M23.255,7.406a3.262,3.262,0,0,0,3.516-3.255A3.243,3.243,0,0,0,23.307.844,3.179,3.179,0,0,0,19.87,4.151,3.18,3.18,0,0,0,23.255,7.406ZM49.192.844a3.179,3.179,0,0,0-3.437,3.307A3.18,3.18,0,0,0,49.14,7.406a3.262,3.262,0,0,0,3.516-3.255A3.243,3.243,0,0,0,49.192.844Zm-3.281,9.14H40.026L38.177,13.37c-.547,1.041-1.068,2.109-1.641,3.229h-.078c-.547-.99-1.12-2.057-1.719-3.125l-2.057-3.49H20.755a8.441,8.441,0,0,0-3.047-5.833c-1.927-1.536-4.817-2.318-8.854-2.318A54.575,54.575,0,0,0,0,2.432V31H6.484V20.661a17.923,17.923,0,0,0,2.24.131c3.88,0,7.187-.938,9.4-3.047a7.912,7.912,0,0,0,1.9-2.839v16.12H32.369l1.98-3.776c.52-1.042,1.067-2.057,1.588-3.177h.13c.521,1.067,1.042,2.135,1.641,3.177l2.109,3.776h12.63V9.984H45.911ZM8.672,15.74a9.777,9.777,0,0,1-2.188-.183V7.042a11.022,11.022,0,0,1,2.709-.261c3.255,0,5.1,1.589,5.1,4.245C14.3,14,12.161,15.74,8.672,15.74Zm17.89,13.229V11.755l5.781,8.568ZM40.208,20.01l5.7-8.255V29Zm39.895-6.2c-3.75-1.406-5.364-2.239-5.364-4.088,0-1.51,1.38-2.786,4.219-2.786a13.635,13.635,0,0,1,6.067,1.38l1.433-5.287a17.6,17.6,0,0,0-7.4-1.458c-6.016,0-9.922,2.943-10.781,7V2.042H61.744V20.271c0,4.5-1.719,5.755-4.479,5.755a10.443,10.443,0,0,1-3.359-.521l-.729,5.286a17.538,17.538,0,0,0,4.765.678c6.354,0,10.313-2.891,10.313-11.12V11.937c.729,3.282,3.619,5.443,7.786,6.9,3.49,1.25,4.844,2.266,4.844,4.089,0,1.9-1.589,3.125-4.61,3.125a17.037,17.037,0,0,1-7.265-1.8l-1.328,5.417a18.824,18.824,0,0,0,8.2,1.77c7.942,0,11.692-4.114,11.692-8.984C87.629,18.37,85.208,15.713,80.1,13.812Z" fill="#ea1e63"/>
</svg>
