<svg xmlns="http://www.w3.org/2000/svg" width="184" height="30" viewBox="0 0 184 30">
  <path class="colorize" d="M13,11.481A1.251,1.251,0,1,1,11.75,10.23,1.248,1.248,0,0,1,13,11.481Zm.748.576c-1.324,0-.294,1.533-.074,2.563C13.994,13.884,15.073,12.057,13.748,12.057ZM10.8,18.539a16.157,16.157,0,0,0,4.174,5.342c.072.063.144.125.213.184.154.13.3.251.435.359.567.456.952.718.978.735a12.555,12.555,0,1,1,5.468-3.314c.79,1.976,1.364,3.932,2.609,7.477-5.4-3.961-7.5-3.863-10.546-6.708A16.508,16.508,0,0,1,10.8,18.539ZM9.555,22.811c-3.74-2.563-3.188-8.277-3.176-11.6C6.391,7.728,9.518,5.595,12.5,5.656c3.568.061,6.156,2.649,5.874,6.119-.089,1.088-.139,2.068-.167,2.986a7.659,7.659,0,0,1,1.136,1.551c.831,1.484,1.436,2.651,1.927,3.7a10.679,10.679,0,1,0-9.9,3.679A7.7,7.7,0,0,1,9.555,22.811Zm4-8.118c4.856-.012,4.807-6.058,1.974-6.082a2.153,2.153,0,0,0-1.839,1.116,2.271,2.271,0,0,0-2.207-1.41C7.8,8.342,7.948,14.706,13.552,14.693Zm1.937-4.476a1.174,1.174,0,0,0-1.079,1.251,1.174,1.174,0,0,0,1.079,1.251,1.174,1.174,0,0,0,1.079-1.251A1.174,1.174,0,0,0,15.49,10.218Zm25.889,16.64h3.6V19.414H48.2a11.487,11.487,0,0,0,3.055-.387,6.8,6.8,0,0,0,2.45-1.21,5.713,5.713,0,0,0,1.628-2.062,6.736,6.736,0,0,0,.589-2.915,6.667,6.667,0,0,0-.589-2.962A5.2,5.2,0,0,0,53.721,7.94a6.438,6.438,0,0,0-2.434-1.054,14.419,14.419,0,0,0-3.086-.31H41.378Zm3.6-10.327V9.46h2.946a6.2,6.2,0,0,1,3.349.729,2.928,2.928,0,0,1,1.117,2.651q0,3.691-4.466,3.691ZM58.062,26.857h3.566v-9.3a5.386,5.386,0,0,1,1.706-2.434,3.322,3.322,0,0,1,1.891-.7,4.777,4.777,0,0,1,.837.062,6.6,6.6,0,0,1,.744.186l.62-3.1a4.295,4.295,0,0,0-4.093.481,6.381,6.381,0,0,0-1.954,2.279h-.124l-.248-2.7H58.062Zm9.489-4.218a7.41,7.41,0,0,0,1.6,2.512A6.786,6.786,0,0,0,71.459,26.7a7.2,7.2,0,0,0,2.729.527,7.328,7.328,0,0,0,2.745-.527,6.6,6.6,0,0,0,2.31-1.551,7.75,7.75,0,0,0,1.6-2.512,8.918,8.918,0,0,0,.6-3.38,8.92,8.92,0,0,0-.6-3.38,7.75,7.75,0,0,0-1.6-2.512,6.783,6.783,0,0,0-2.31-1.566,7.147,7.147,0,0,0-2.745-.543,7.027,7.027,0,0,0-5.039,2.109,7.41,7.41,0,0,0-1.6,2.512,9.126,9.126,0,0,0-.589,3.38A9.125,9.125,0,0,0,67.552,22.64Zm4.016-7.086a3.006,3.006,0,0,1,2.621-1.38,3.045,3.045,0,0,1,2.636,1.38,6.378,6.378,0,0,1,.961,3.706,6.317,6.317,0,0,1-.961,3.675,3.044,3.044,0,0,1-2.636,1.38,3,3,0,0,1-2.621-1.38,6.391,6.391,0,0,1-.946-3.675A6.454,6.454,0,0,1,71.568,15.554Zm10.4,9.567a10.071,10.071,0,0,0,2.652,1.5,8.44,8.44,0,0,0,3.117.6,8.032,8.032,0,0,0,2.543-.372,5.508,5.508,0,0,0,1.86-1.008,4.257,4.257,0,0,0,1.132-1.488,4.407,4.407,0,0,0,.387-1.845,3.952,3.952,0,0,0-.387-1.814,4.045,4.045,0,0,0-1.023-1.287,6.4,6.4,0,0,0-1.411-.884q-.776-.356-1.551-.636-.621-.216-1.194-.434A7.072,7.072,0,0,1,87.089,17a2.436,2.436,0,0,1-.7-.574,1.216,1.216,0,0,1-.264-.791,1.533,1.533,0,0,1,.542-1.194,2.5,2.5,0,0,1,1.69-.481,4.287,4.287,0,0,1,1.721.357,8.541,8.541,0,0,1,1.628.946l1.643-2.171a10.651,10.651,0,0,0-2.2-1.272,7.03,7.03,0,0,0-2.853-.558,6.053,6.053,0,0,0-4.063,1.272,4.124,4.124,0,0,0-1.488,3.287,3.36,3.36,0,0,0,.387,1.659,4.525,4.525,0,0,0,.993,1.225,6.086,6.086,0,0,0,1.38.9q.775.372,1.52.651.589.249,1.178.481a7.178,7.178,0,0,1,1.055.512A2.684,2.684,0,0,1,90,21.88a1.3,1.3,0,0,1,.279.822,1.667,1.667,0,0,1-.589,1.318,2.745,2.745,0,0,1-1.83.512,5.3,5.3,0,0,1-2.186-.45,9.639,9.639,0,0,1-2.031-1.256Zm13.1-2.5a7.142,7.142,0,0,0,1.6,2.5,6.991,6.991,0,0,0,2.388,1.566,7.9,7.9,0,0,0,2.946.543,8.42,8.42,0,0,0,2.791-.465,10.93,10.93,0,0,0,2.419-1.178l-1.21-2.233a8.2,8.2,0,0,1-1.69.822,5.6,5.6,0,0,1-1.845.294,4.293,4.293,0,0,1-3.054-1.116,5.017,5.017,0,0,1-1.442-3.195h9.676a7.186,7.186,0,0,0,.155-1.675,10.043,10.043,0,0,0-.4-2.915,6.558,6.558,0,0,0-1.194-2.295,5.335,5.335,0,0,0-1.969-1.488,6.627,6.627,0,0,0-2.729-.527,6.422,6.422,0,0,0-2.6.558A6.943,6.943,0,0,0,96.656,13.4,7.678,7.678,0,0,0,95.09,15.91a9.035,9.035,0,0,0-.589,3.349A9.216,9.216,0,0,0,95.074,22.624Zm2.869-4.729A4.7,4.7,0,0,1,99.214,15a3.348,3.348,0,0,1,2.388-.977,2.725,2.725,0,0,1,2.341,1.023,4.7,4.7,0,0,1,.76,2.853Zm12.218,8.963h3.318V17.585q0-.713-.046-1.551t-.124-1.69q-.077-.852-.155-1.675t-.139-1.535h.124l1.613,4.621,3.5,9.21h1.675l3.5-9.21,1.643-4.621h.124q-.063.713-.155,1.535t-.155,1.675q-.063.854-.109,1.69t-.047,1.551v9.272h3.38V6.576h-3.97l-3.6,9.986-1.3,3.846h-.124l-1.333-3.846-3.66-9.986h-3.97ZM134.971,8.405a1.869,1.869,0,0,0,.62-1.458,1.917,1.917,0,0,0-.62-1.473,2.467,2.467,0,0,0-3.163,0,1.914,1.914,0,0,0-.62,1.473,1.866,1.866,0,0,0,.62,1.458,2.52,2.52,0,0,0,3.163,0Zm-3.38,18.452h3.566V11.631H131.59Zm6.76,0h3.566v-9.3a5.386,5.386,0,0,1,1.706-2.434,3.322,3.322,0,0,1,1.891-.7,4.777,4.777,0,0,1,.837.062,6.6,6.6,0,0,1,.744.186l.62-3.1a4.295,4.295,0,0,0-4.093.481,6.381,6.381,0,0,0-1.954,2.279h-.124l-.248-2.7H138.35Zm10.2,0h3.566v-9.3a5.386,5.386,0,0,1,1.706-2.434,3.322,3.322,0,0,1,1.891-.7,4.777,4.777,0,0,1,.837.062,6.6,6.6,0,0,1,.744.186l.62-3.1a4.295,4.295,0,0,0-4.093.481,6.381,6.381,0,0,0-1.954,2.279h-.124l-.248-2.7h-2.946Zm9.489-4.218a7.41,7.41,0,0,0,1.6,2.512A6.786,6.786,0,0,0,161.95,26.7a7.2,7.2,0,0,0,2.729.527,7.328,7.328,0,0,0,2.745-.527,6.6,6.6,0,0,0,2.31-1.551,7.75,7.75,0,0,0,1.6-2.512,8.918,8.918,0,0,0,.6-3.38,8.92,8.92,0,0,0-.6-3.38,7.75,7.75,0,0,0-1.6-2.512,6.783,6.783,0,0,0-2.31-1.566,7.147,7.147,0,0,0-2.745-.543,7.027,7.027,0,0,0-5.039,2.109,7.41,7.41,0,0,0-1.6,2.512,9.126,9.126,0,0,0-.589,3.38A9.125,9.125,0,0,0,158.042,22.64Zm4.016-7.086a3.006,3.006,0,0,1,2.621-1.38,3.045,3.045,0,0,1,2.636,1.38,6.378,6.378,0,0,1,.961,3.706,6.317,6.317,0,0,1-.961,3.675,3.044,3.044,0,0,1-2.636,1.38,3,3,0,0,1-2.621-1.38,6.391,6.391,0,0,1-.946-3.675A6.454,6.454,0,0,1,162.058,15.554Zm12.048,11.3h3.566v-9.3a5.386,5.386,0,0,1,1.706-2.434,3.322,3.322,0,0,1,1.891-.7,4.777,4.777,0,0,1,.837.062,6.6,6.6,0,0,1,.744.186l.62-3.1a4.295,4.295,0,0,0-4.093.481,6.381,6.381,0,0,0-1.954,2.279H177.3l-.248-2.7h-2.946Z"/>
</svg>
