<svg xmlns="http://www.w3.org/2000/svg" width="147" height="36" viewBox="0 0 147 36">
  <path class="colorize" d="M32.214,11.947h0q-.616-.211-1.242-.391.1-.422.192-.847c.94-4.565.325-8.242-1.774-9.453C27.376.1,24.084,1.306,20.759,4.2q-.491.429-.961.882-.314-.3-.639-.591C15.674,1.4,12.181.092,10.083,1.307c-2.011,1.164-2.607,4.621-1.76,8.947q.126.643.285,1.278c-.494.14-.972.29-1.428.449C3.094,13.406.485,15.638.485,17.954c0,2.392,2.8,4.79,7.056,6.245q.518.176,1.043.326-.171.685-.3,1.378c-.807,4.251-.177,7.626,1.829,8.783,2.072,1.195,5.549-.033,8.935-2.993q.4-.351.805-.742.508.49,1.043.952c3.28,2.822,6.519,3.962,8.523,2.8,2.07-1.2,2.742-4.824,1.869-9.236q-.1-.505-.231-1.032.366-.108.718-.224c4.424-1.466,7.3-3.835,7.3-6.259C39.075,15.63,36.382,13.382,32.214,11.947Zm-10.373-6.5c2.849-2.479,5.512-3.458,6.725-2.759h0c1.292.745,1.795,3.751.983,7.692q-.08.385-.174.767a39.492,39.492,0,0,0-5.16-.815,38.726,38.726,0,0,0-3.262-4.071Q21.387,5.839,21.841,5.443ZM11.879,19.932q.523,1.011,1.094,2,.582,1.005,1.212,1.982a35.1,35.1,0,0,1-3.556-.572C10.969,22.238,11.389,21.095,11.879,19.932Zm0-3.877c-.48-1.139-.891-2.258-1.226-3.339,1.1-.246,2.275-.448,3.5-.6q-.614.958-1.183,1.944T11.878,16.054Zm.876,1.939q.762-1.586,1.641-3.111h0q.879-1.524,1.871-2.979c1.148-.087,2.324-.132,3.514-.132s2.373.046,3.52.133q.982,1.451,1.859,2.969t1.664,3.1q-.773,1.591-1.658,3.124h0q-.877,1.523-1.851,2.987c-1.145.082-2.328.124-3.534.124s-2.369-.037-3.494-.11q-1-1.46-1.886-2.992T12.754,17.993Zm13.84,3.924q.582-1.01,1.119-2.045h0a35.01,35.01,0,0,1,1.3,3.395,34.985,34.985,0,0,1-3.6.614q.612-.97,1.185-1.964Zm1.1-5.861q-.535-1.015-1.11-2.008h0q-.566-.977-1.173-1.93c1.231.155,2.411.362,3.519.615A35.17,35.17,0,0,1,27.7,16.056Zm-7.9-8.62a35.256,35.256,0,0,1,2.271,2.741q-2.279-.108-4.561,0C18.258,9.188,19.026,8.269,19.8,7.436Zm-8.889-4.7c1.291-.747,4.146.318,7.155,2.99.192.171.385.35.579.535a39.5,39.5,0,0,0-3.287,4.068,40.281,40.281,0,0,0-5.149.8q-.148-.591-.265-1.189h0C9.215,6.231,9.7,3.435,10.909,2.733Zm-1.882,20.2q-.48-.137-.953-.3a13.966,13.966,0,0,1-4.5-2.391,3.407,3.407,0,0,1-1.44-2.294c0-1.405,2.1-3.2,5.589-4.416q.658-.228,1.328-.418a39.537,39.537,0,0,0,1.881,4.874A40.137,40.137,0,0,0,9.027,22.937Zm8.934,7.514a13.962,13.962,0,0,1-4.32,2.7h0a3.407,3.407,0,0,1-2.706.1c-1.217-.7-1.723-3.412-1.033-7.047q.123-.644.282-1.281a38.765,38.765,0,0,0,5.2.753A40.116,40.116,0,0,0,18.7,29.774Q18.337,30.122,17.961,30.451Zm1.883-1.863c-.781-.843-1.561-1.776-2.322-2.779q1.108.044,2.258.044,1.18,0,2.329-.052a35.057,35.057,0,0,1-2.265,2.787Zm10.011,2.294a3.407,3.407,0,0,1-1.263,2.4c-1.216.7-3.817-.211-6.622-2.625q-.482-.415-.97-.885a38.739,38.739,0,0,0,3.235-4.107,38.483,38.483,0,0,0,5.227-.806q.118.476.209.934h0a13.959,13.959,0,0,1,.185,5.093Zm1.4-8.234h0c-.211.07-.427.137-.648.2a38.693,38.693,0,0,0-1.954-4.889,38.676,38.676,0,0,0,1.878-4.817c.395.114.778.235,1.147.362,3.571,1.229,5.749,3.047,5.749,4.447,0,1.492-2.353,3.429-6.172,4.694ZM19.78,14.508a3.446,3.446,0,1,1-3.446,3.446h0a3.446,3.446,0,0,1,3.446-3.446h0m110.2,3.914a3.562,3.562,0,0,0-3.715-3.248c-2.5,0-4.081,2.132-4.081,5.647,0,3.581,1.583,5.647,4.1,5.647a3.459,3.459,0,0,0,3.715-3.131h4.531c-.283,4.264-3.481,6.979-8.3,6.979-5.48,0-8.978-3.6-8.978-9.495,0-5.813,3.5-9.478,8.945-9.478,4.93,0,8.079,3,8.312,7.079ZM143.435,7.578v4.081h3.4V15.34h-3.4v8.912c0,1.416.7,2.1,2.182,2.1a8.327,8.327,0,0,0,1.216-.084v3.6a12.907,12.907,0,0,1-2.349.2c-4.248,0-5.913-1.432-5.913-5.014V15.34h-2.482V11.659h2.482V7.578Zm-36.612,3.764c-4.581,0-7.746,2.416-7.879,5.913h4.447c.233-1.332,1.466-2.265,3.232-2.265,2,0,3.215.966,3.215,2.732v1.216l-4.581.283c-4.681.283-7.229,2.166-7.229,5.5,0,3.282,2.648,5.5,6.18,5.5a6.276,6.276,0,0,0,5.613-3.048h.1V30h4.7V17.422C114.618,13.758,111.537,11.342,106.823,11.342Zm3.015,11.927c0,2-1.8,3.4-4.048,3.4-1.766,0-2.915-.849-2.915-2.2s1.082-2.149,3.115-2.282l3.848-.267ZM95.7,21.953v-1.5c0-5.58-3.365-9.111-8.645-9.111-5.38,0-8.812,3.731-8.812,9.561s3.415,9.411,8.995,9.411c4.464,0,7.779-2.365,8.312-5.913H91.065a3.689,3.689,0,0,1-3.748,2.282,4.124,4.124,0,0,1-4.281-4.431v-.3Zm-8.6-6.979A3.8,3.8,0,0,1,91,18.938H83.086A3.992,3.992,0,0,1,87.1,14.974Zm-15.491,5.48a7.064,7.064,0,0,0,4.364-6.829c0-4.747-3.165-7.662-8.695-7.662H57.351V30h5.03V21.2H66.5L70.976,30h5.7Zm-4.814-2.9H62.381V9.893h4.364c2.5,0,4.064,1.5,4.064,3.831C70.81,16.106,69.327,17.555,66.8,17.555Z" fill="#61dafb"/>
</svg>
