<svg class="rrchnm-logo" xmlns="http://www.w3.org/2000/svg" width="217" height="40" viewBox="0 0 217 40">
  <path d="M0,0V19.647H19.741V0ZM14.534,16.36a1.072,1.072,0,0,0,1.006.421c.15,0,.329-.011.542-.032q.552-.055.6-.067l.25-.031.025.837a8.02,8.02,0,0,1-1.58.2,1.71,1.71,0,0,1-1.6-.68,4.393,4.393,0,0,1-.4-2.186A4.252,4.252,0,0,1,13.8,12.6a1.743,1.743,0,0,1,1.575-.66,5.84,5.84,0,0,1,.712.05,4.345,4.345,0,0,1,.632.108l.244.057-.032.811a11.37,11.37,0,0,0-1.426-.118,1.061,1.061,0,0,0-.974.412,3.341,3.341,0,0,0-.247,1.56A3.385,3.385,0,0,0,14.534,16.36ZM20.841,0V19.647h19.27V0Zm16.31,17.378h-.915V15.006h-2.3v2.372h-.916V11.813h.916V14.1h2.3V11.813h.915ZM0,20.729V40H19.741V20.729ZM16.887,37.313H15.456l-1.819-4.391h-.162v4.391H12.56V31.748h1.577l1.76,4.373h.077V31.748h.914v5.565Zm3.954-16.584V40h19.27V20.729Zm16.35,16.628h-.914v-4.39h-.094l-1.25,4.167h-.956l-1.258-4.166h-.146v4.391h-.915V31.793h1.536l1.26,4.229,1.264-4.229h1.473Z" fill="#b3252d"/>
  <path d="M46.357,18.828V8.564h3.8a3.692,3.692,0,0,1,2.58.783,3.319,3.319,0,0,1,.824,2.52,3.062,3.062,0,0,1-1.474,2.954l1.474,4.007H51.642l-1.266-3.492H48.043v3.492Zm1.688-5.165h2.169q1.649,0,1.655-1.752a1.488,1.488,0,0,0-1.684-1.674h-2.14Zm6.895,1.423a4.533,4.533,0,0,1,.762-2.858,3.061,3.061,0,0,1,2.551-.984,2.953,2.953,0,0,1,2.53,1.039,4.57,4.57,0,0,1,.762,2.8,4.876,4.876,0,0,1-.747,2.852,2.931,2.931,0,0,1-2.546,1.057,3.03,3.03,0,0,1-2.562-.982A4.783,4.783,0,0,1,54.94,15.086Zm1.688,0a3.333,3.333,0,0,0,.33,1.717,1.424,1.424,0,0,0,1.3.518,1.4,1.4,0,0,0,1.278-.518,3.361,3.361,0,0,0,.327-1.717,3.012,3.012,0,0,0-.356-1.65,1.405,1.405,0,0,0-1.248-.518,1.455,1.455,0,0,0-1.277.505A2.953,2.953,0,0,0,56.628,15.086Zm5.744-3.661h1.669l1.528,5.759.414.008L67.5,11.424h1.669l-2.771,10.56H64.725l.829-3.16-1.256,0Zm11.581,7.4V8.564h3.8a3.688,3.688,0,0,1,2.58.783,3.315,3.315,0,0,1,.825,2.52,3.061,3.061,0,0,1-1.475,2.954l1.475,4.007H79.239l-1.266-3.492H75.64v3.492Zm1.688-5.165H77.81q1.647,0,1.655-1.752a1.489,1.489,0,0,0-1.684-1.674h-2.14Zm6.9,1.423a4.539,4.539,0,0,1,.761-2.858,3.064,3.064,0,0,1,2.552-.984,2.956,2.956,0,0,1,2.53,1.039,4.576,4.576,0,0,1,.762,2.8,4.876,4.876,0,0,1-.748,2.852,2.928,2.928,0,0,1-2.545,1.057,3.029,3.029,0,0,1-2.562-.982A4.776,4.776,0,0,1,82.537,15.086Zm1.687,0a3.321,3.321,0,0,0,.331,1.717,1.424,1.424,0,0,0,1.295.518,1.4,1.4,0,0,0,1.278-.518,3.361,3.361,0,0,0,.327-1.717,3.012,3.012,0,0,0-.356-1.65,1.405,1.405,0,0,0-1.248-.518,1.459,1.459,0,0,0-1.278.505A2.961,2.961,0,0,0,84.224,15.086Zm6.287-1.4a2.152,2.152,0,0,1,.8-1.839,3.231,3.231,0,0,1,2-.6,11.639,11.639,0,0,1,2.828.479L96.1,13.157a20.936,20.936,0,0,0-2.669-.239,2.014,2.014,0,0,0-.951.159.613.613,0,0,0-.283.568.449.449,0,0,0,.3.455,7.317,7.317,0,0,0,1.249.265,4.5,4.5,0,0,1,2.045.687,1.8,1.8,0,0,1,.565,1.474q0,2.469-2.952,2.468a7.75,7.75,0,0,1-1.157-.087c-.622-.084-1.009-.143-1.158-.174l-.455-.1.057-1.532a22.6,22.6,0,0,0,2.551.224,2.552,2.552,0,0,0,1.114-.17.61.61,0,0,0,.312-.585.494.494,0,0,0-.269-.475,5.23,5.23,0,0,0-1.162-.279,5.2,5.2,0,0,1-2.12-.666A1.684,1.684,0,0,1,90.511,13.687Zm7.163,1.52q0-3.963,3.2-3.962,3.169,0,3.176,3.382l-.123,1.217H99.361a1.524,1.524,0,0,0,.392,1.118,1.9,1.9,0,0,0,1.279.36q1.177,0,2.739-.126L103.8,18.6a14.049,14.049,0,0,1-3.012.393,2.879,2.879,0,0,1-2.386-.909A4.6,4.6,0,0,1,97.674,15.207Zm1.688-.681h3.006a1.819,1.819,0,0,0-.342-1.239,1.95,1.95,0,0,0-2.3.013A1.746,1.746,0,0,0,99.362,14.526Zm6.323,4.3v-7.4h1.688v.39a4.673,4.673,0,0,1,1.984-.571,2.22,2.22,0,0,1,2.029.862,5.522,5.522,0,0,1,.549,2.847v3.875h-1.688v-3.8a4,4,0,0,0-.231-1.615.985.985,0,0,0-.985-.493,3.65,3.65,0,0,0-.71.085,5.6,5.6,0,0,0-.681.158l-.268.092v5.575Zm8.088,0V17.355l3.4-4.272H113.7V11.41h5.574V13l-3.289,4.155h3.455v1.674h-5.67Zm6.464-7.4h1.678l1.1,5.729h.326l1.267-5.6h1.847l1.235,5.6h.423l1.208-5.729h1.566l-1.549,7.4h-2.7l-1.087-4.955-1.117,4.955h-2.754Zm11.48,3.782q0-3.963,3.2-3.962,3.168,0,3.175,3.382l-.123,1.217H133.4a1.52,1.52,0,0,0,.393,1.118,1.892,1.892,0,0,0,1.278.36q1.178,0,2.739-.126l.029,1.406a14.048,14.048,0,0,1-3.011.393,2.881,2.881,0,0,1-2.387-.909A4.6,4.6,0,0,1,131.717,15.207Zm1.688-.681h3.006a1.819,1.819,0,0,0-.342-1.239,1.95,1.95,0,0,0-2.3.013A1.746,1.746,0,0,0,133.405,14.526Zm6.287-4.426V8.427h1.687V10.1Zm0,8.728v-7.4h1.687v7.4ZM143,20.059a1.56,1.56,0,0,1,.266-.917,3.547,3.547,0,0,1,.822-.807,1.148,1.148,0,0,1-.575-1.079,2.481,2.481,0,0,1,.652-1.174,2.424,2.424,0,0,1-1.079-2.223A2.309,2.309,0,0,1,143.9,11.9a3.489,3.489,0,0,1,2.166-.637,5.818,5.818,0,0,1,.662.043c.148.019.35.054.6.1l.237.043,2.238-.043v1.376h-1.031a1.736,1.736,0,0,1,.314,1.071,2.4,2.4,0,0,1-.73,2.032,3.919,3.919,0,0,1-2.324.547,3.01,3.01,0,0,1-.654-.059,2.08,2.08,0,0,0-.181.667.441.441,0,0,0,.27.449,4.705,4.705,0,0,0,1.292.1,4.541,4.541,0,0,1,2.427.465,1.9,1.9,0,0,1,.66,1.7,2.275,2.275,0,0,1-.941,2,4.325,4.325,0,0,1-2.488.638,5.085,5.085,0,0,1-2.595-.5A1.987,1.987,0,0,1,143,20.059Zm1.774-6.2a1.188,1.188,0,0,0,.282.891,1.438,1.438,0,0,0,.98.268,1.621,1.621,0,0,0,1.039-.253,1.133,1.133,0,0,0,.328-.906,1.08,1.08,0,0,0-.312-.891,1.707,1.707,0,0,0-1.04-.253,1.439,1.439,0,0,0-.98.253A1.152,1.152,0,0,0,144.776,13.859Zm0,6.04a.628.628,0,0,0,.379.626,3.087,3.087,0,0,0,1.283.193q1.728,0,1.728-.872c0-.338-.1-.549-.3-.633a3.837,3.837,0,0,0-1.234-.146l-1.445-.095A1.358,1.358,0,0,0,144.776,19.9Zm9.627-6.192a7.833,7.833,0,0,1,.8-4.093A3.209,3.209,0,0,1,158.1,8.4a10.47,10.47,0,0,1,1.311.092,8.442,8.442,0,0,1,1.166.2l.449.106-.058,1.5a20.861,20.861,0,0,0-2.629-.22,1.955,1.955,0,0,0-1.8.761,6.127,6.127,0,0,0-.457,2.875,6.2,6.2,0,0,0,.457,2.838,1.972,1.972,0,0,0,1.854.776q.413,0,1-.058,1.022-.1,1.109-.124l.463-.059.043,1.546a14.806,14.806,0,0,1-2.911.368q-2.211,0-2.96-1.253A8.163,8.163,0,0,1,154.4,13.707Zm7.858,1.5q0-3.963,3.205-3.962,3.168,0,3.176,3.382l-.124,1.217h-4.571a1.524,1.524,0,0,0,.393,1.118,1.892,1.892,0,0,0,1.278.36q1.178,0,2.739-.126l.03,1.406a14.049,14.049,0,0,1-3.012.393,2.883,2.883,0,0,1-2.387-.909A4.6,4.6,0,0,1,162.261,15.207Zm1.687-.681h3.006a1.814,1.814,0,0,0-.342-1.239,1.949,1.949,0,0,0-2.3.013A1.746,1.746,0,0,0,163.948,14.526Zm6.324,4.3v-7.4h1.687v.39a4.677,4.677,0,0,1,1.985-.571,2.218,2.218,0,0,1,2.029.862,5.522,5.522,0,0,1,.549,2.847v3.875h-1.687v-3.8a3.992,3.992,0,0,0-.232-1.615.984.984,0,0,0-.985-.493,3.659,3.659,0,0,0-.71.085,5.6,5.6,0,0,0-.681.158l-.268.092v5.575Zm7.511-5.73V11.425h.934V9.418h1.688v2.007h2.007V13.1h-2.007v2.894a2.869,2.869,0,0,0,.123,1.074q.131.27.652.27l1.2-.044.073,1.456a7.007,7.007,0,0,1-1.514.261,2.158,2.158,0,0,1-1.753-.579,3.513,3.513,0,0,1-.471-2.143V13.1h-.934Zm5.541,2.109q0-3.963,3.2-3.962,3.169,0,3.176,3.382l-.123,1.217h-4.571a1.524,1.524,0,0,0,.392,1.118,1.9,1.9,0,0,0,1.279.36q1.178,0,2.739-.126l.029,1.406a14.049,14.049,0,0,1-3.012.393,2.88,2.88,0,0,1-2.386-.909A4.6,4.6,0,0,1,183.324,15.207Zm1.688-.681h3.006a1.819,1.819,0,0,0-.342-1.239,1.95,1.95,0,0,0-2.3.013A1.746,1.746,0,0,0,185.012,14.526Zm6.323,4.3v-7.4h1.687v.723a5.713,5.713,0,0,1,2.239-.9v1.673a7.416,7.416,0,0,0-2.239.794v5.116ZM45.524,30.405V28.732h.848v-.477a3.943,3.943,0,0,1,.456-2.263,1.963,1.963,0,0,1,1.652-.621l1.615.174-.014,1.527q-.95-.028-1.174-.029a.753.753,0,0,0-.67.265,1.9,1.9,0,0,0-.177.981v.442h1.912V30.4H48.06v5.729H46.372V30.4h-.848Zm5.309,1.987a4.539,4.539,0,0,1,.762-2.858,3.059,3.059,0,0,1,2.552-.984,2.958,2.958,0,0,1,2.53,1.038,4.581,4.581,0,0,1,.761,2.8,4.87,4.87,0,0,1-.747,2.851A2.931,2.931,0,0,1,54.146,36.3a3.035,3.035,0,0,1-2.564-.983A4.782,4.782,0,0,1,50.833,32.392Zm1.688,0a3.324,3.324,0,0,0,.331,1.717,1.423,1.423,0,0,0,1.3.518,1.4,1.4,0,0,0,1.277-.518,3.364,3.364,0,0,0,.327-1.717,3.021,3.021,0,0,0-.356-1.65,1.407,1.407,0,0,0-1.248-.519,1.46,1.46,0,0,0-1.278.505A2.979,2.979,0,0,0,52.521,32.392Zm6.649,3.742v-7.4h1.687v.723a5.713,5.713,0,0,1,2.239-.9v1.673a7.406,7.406,0,0,0-2.239.794v5.116Zm8.823,0V25.871H69.68v4.216h4.252V25.871h1.687V36.134H73.932V31.759H69.68v4.375Zm9.9-8.728V25.733h1.688v1.673Zm0,8.728v-7.4h1.688v7.4Zm3.47-5.141a2.153,2.153,0,0,1,.8-1.84,3.236,3.236,0,0,1,2-.6,11.684,11.684,0,0,1,2.829.478l-.036,1.435a20.8,20.8,0,0,0-2.669-.24,2.009,2.009,0,0,0-.951.16.613.613,0,0,0-.283.568.45.45,0,0,0,.3.455,7.341,7.341,0,0,0,1.249.265,4.482,4.482,0,0,1,2.045.687,1.8,1.8,0,0,1,.565,1.474q0,2.469-2.951,2.468a7.773,7.773,0,0,1-1.158-.087q-.933-.128-1.157-.175l-.455-.1.056-1.533a22.421,22.421,0,0,0,2.551.225,2.549,2.549,0,0,0,1.114-.17.611.611,0,0,0,.313-.585.5.5,0,0,0-.269-.475,5.226,5.226,0,0,0-1.162-.28,5.206,5.206,0,0,1-2.121-.665A1.681,1.681,0,0,1,81.363,30.993Zm6.852-.588V28.732h.934V26.725h1.688v2.007h2.006v1.673H90.837V33.3a2.863,2.863,0,0,0,.123,1.073q.13.27.652.27l1.2-.043.073,1.456a7.017,7.017,0,0,1-1.514.261,2.155,2.155,0,0,1-1.753-.579,3.513,3.513,0,0,1-.471-2.143V30.406h-.934Zm5.541,1.987a4.533,4.533,0,0,1,.762-2.858,3.058,3.058,0,0,1,2.551-.984,2.956,2.956,0,0,1,2.53,1.038,4.575,4.575,0,0,1,.762,2.8,4.863,4.863,0,0,1-.748,2.851A2.928,2.928,0,0,1,97.068,36.3a3.031,3.031,0,0,1-2.562-.983A4.775,4.775,0,0,1,93.756,32.392Zm1.687,0a3.324,3.324,0,0,0,.331,1.717,1.424,1.424,0,0,0,1.3.518,1.4,1.4,0,0,0,1.278-.518,3.364,3.364,0,0,0,.327-1.717,3.012,3.012,0,0,0-.356-1.65,1.406,1.406,0,0,0-1.248-.519,1.461,1.461,0,0,0-1.278.505A2.97,2.97,0,0,0,95.443,32.392Zm6.65,3.742v-7.4h1.687v.723a5.708,5.708,0,0,1,2.238-.9v1.673a7.4,7.4,0,0,0-2.238.794v5.116Zm4.4-7.4h1.669l1.528,5.759.414.007,1.513-5.767h1.669l-2.771,10.56H108.85l.829-3.16-1.257,0Zm11.074,5.2a2.056,2.056,0,0,1,.608-1.652,3.207,3.207,0,0,1,1.857-.617l1.837-.143v-.43a.786.786,0,0,0-.255-.634.981.981,0,0,0-.667-.233c-.329,0-.732.014-1.206.043-.13.011-.524.03-1.178.058l-.468.029-.056-1.434a17.137,17.137,0,0,1,3-.369,2.593,2.593,0,0,1,1.892.6,2.666,2.666,0,0,1,.628,1.942v3.025a1.029,1.029,0,0,0,.145.532.883.883,0,0,0,.457.208L124.1,36.3a4.608,4.608,0,0,1-1.214-.123,2.149,2.149,0,0,1-.764-.4,6.489,6.489,0,0,1-2.424.522,1.978,1.978,0,0,1-1.571-.621A2.56,2.56,0,0,1,117.571,33.933Zm1.688-.077c0,.659.251.988.756.988a7.307,7.307,0,0,0,1.859-.3V32.792l-1.619.09Q119.259,32.972,119.259,33.856Zm6.562,2.278v-7.4h1.687v.39a4.677,4.677,0,0,1,1.985-.571,2.217,2.217,0,0,1,2.029.861,5.526,5.526,0,0,1,.55,2.847v3.875h-1.688v-3.8a3.972,3.972,0,0,0-.232-1.614.983.983,0,0,0-.985-.494,3.67,3.67,0,0,0-.71.086,5.563,5.563,0,0,0-.68.158l-.269.092v5.575h-1.687Zm7.822-3.732a4.688,4.688,0,0,1,.748-2.926,2.771,2.771,0,0,1,2.313-.925,7.577,7.577,0,0,1,1.663.211V25.747h1.687V36.134h-1.687v-.378a4.33,4.33,0,0,1-1.932.545,2.464,2.464,0,0,1-2.131-.9A5.234,5.234,0,0,1,133.643,32.4Zm1.689.013a3.157,3.157,0,0,0,.334,1.709,1.188,1.188,0,0,0,1.038.5,6.468,6.468,0,0,0,1.663-.31V30.354l-.03-.007a.621.621,0,0,0-.094-.014,1.275,1.275,0,0,0-.146-.007l-.624-.069c-.159-.019-.377-.03-.653-.035a1.282,1.282,0,0,0-1.128.51A3,3,0,0,0,135.332,32.415Zm10.444,3.719V25.871h2.907l3.245,8.066h.142V25.871h1.688V36.134h-2.645l-3.353-8.1h-.3v8.1Zm9.785-3.622q0-3.962,3.2-3.961,3.168,0,3.176,3.382l-.124,1.217h-4.57a1.517,1.517,0,0,0,.392,1.117,1.894,1.894,0,0,0,1.278.36q1.178,0,2.739-.125l.03,1.406a14.049,14.049,0,0,1-3.012.393,2.884,2.884,0,0,1-2.387-.909A4.608,4.608,0,0,1,155.561,32.512Zm1.688-.68h3.006a1.814,1.814,0,0,0-.342-1.239,1.946,1.946,0,0,0-2.3.013A1.748,1.748,0,0,0,157.249,31.832Zm5.476-3.1H164.4l1.1,5.729h.326l1.268-5.6h1.846l1.235,5.6h.423l1.208-5.729h1.567l-1.549,7.4h-2.7l-1.086-4.956-1.118,4.956h-2.753Zm15.5,7.4V25.871h2.832l2.325,7.8,2.332-7.8h2.716V36.134h-1.688v-8.1h-.171l-2.3,7.684H182.5l-2.32-7.683h-.27v8.1h-1.687Zm12.023-3.622q0-3.962,3.205-3.961,3.169,0,3.176,3.382l-.123,1.217h-4.57a1.521,1.521,0,0,0,.392,1.117,1.9,1.9,0,0,0,1.279.36q1.177,0,2.739-.125l.029,1.406a14.049,14.049,0,0,1-3.012.393,2.883,2.883,0,0,1-2.386-.909A4.594,4.594,0,0,1,190.248,32.512Zm1.688-.68h3.006a1.819,1.819,0,0,0-.342-1.239,1.946,1.946,0,0,0-2.3.013A1.753,1.753,0,0,0,191.936,31.832Zm5.816.57a4.688,4.688,0,0,1,.748-2.926,2.773,2.773,0,0,1,2.313-.925,7.57,7.57,0,0,1,1.663.211V25.747h1.687V36.134h-1.687v-.378a4.33,4.33,0,0,1-1.932.545,2.464,2.464,0,0,1-2.131-.9A5.234,5.234,0,0,1,197.752,32.4Zm1.688.013a3.167,3.167,0,0,0,.334,1.709,1.191,1.191,0,0,0,1.039.5,6.468,6.468,0,0,0,1.662-.31V30.354l-.029-.007a.643.643,0,0,0-.094-.014,1.3,1.3,0,0,0-.146-.007l-.624-.069c-.159-.019-.378-.03-.654-.035a1.282,1.282,0,0,0-1.128.51A3,3,0,0,0,199.44,32.415Zm6.9-5.009V25.733h1.687v1.673Zm0,8.728v-7.4h1.687v7.4Zm3.368-2.2a2.057,2.057,0,0,1,.609-1.652,3.2,3.2,0,0,1,1.856-.617l1.838-.143v-.43a.786.786,0,0,0-.255-.634.985.985,0,0,0-.668-.233q-.494,0-1.206.043c-.13.011-.524.03-1.178.058l-.467.029-.057-1.434a17.148,17.148,0,0,1,3-.369,2.6,2.6,0,0,1,1.893.6,2.67,2.67,0,0,1,.627,1.942v3.025a1.049,1.049,0,0,0,.145.532.887.887,0,0,0,.457.208l-.057,1.442a4.622,4.622,0,0,1-1.215-.123,2.149,2.149,0,0,1-.764-.4,6.489,6.489,0,0,1-2.424.522,1.98,1.98,0,0,1-1.571-.621A2.55,2.55,0,0,1,209.7,33.933Zm1.688-.077c0,.659.251.988.756.988a7.307,7.307,0,0,0,1.859-.3V32.792l-1.619.09Q211.391,32.972,211.391,33.856Z" fill="#231f20"/>
</svg>
