<svg xmlns="http://www.w3.org/2000/svg" xmlns:xlink="http://www.w3.org/1999/xlink" width="110" height="49" viewBox="0 0 110 49">
  <defs>
    <linearGradient id="a" data-name="Unbenannter Verlauf 9" x1="-663.09" y1="1023.811" x2="-663.09" y2="1023.77" gradientTransform="matrix(721.366, 0, 0, -761.678, 478347.45, 779817.615)" gradientUnits="userSpaceOnUse">
      <stop offset="0" stop-color="#fff" stop-opacity="0.6"/>
      <stop offset="0.92" stop-color="#fff" stop-opacity="0"/>
      <stop offset="1" stop-color="#fff" stop-opacity="0"/>
    </linearGradient>
  </defs>
  <g>
    <path class="colorize" d="M41.809,24.172a4.979,4.979,0,0,0-3.572,1.3,4.49,4.49,0,0,0-1.377,3.4A5.594,5.594,0,0,0,37.2,30.86a5.021,5.021,0,0,0,1.055,1.672A15.413,15.413,0,0,0,41.1,34.6a14.4,14.4,0,0,1,3.42,2.593,3.3,3.3,0,0,1,.817,2.109,2.985,2.985,0,0,1-.988,2.356,3.87,3.87,0,0,1-2.66.883,4.348,4.348,0,0,1-4.37-4.474h-.542v4.912h.542c.166-.465.394-.7.694-.7a4.456,4.456,0,0,1,1.007.285,9.815,9.815,0,0,0,3.154.674,5.173,5.173,0,0,0,5.168-5.168,4.7,4.7,0,0,0-1-2.945,14.292,14.292,0,0,0-3.867-3,12.78,12.78,0,0,1-3.22-2.432A3.305,3.305,0,0,1,38.5,27.6a2.452,2.452,0,0,1,.9-1.986,3.583,3.583,0,0,1,2.366-.741,3.952,3.952,0,0,1,2.755.988A4.145,4.145,0,0,1,45.8,28.618h.542V24.362h-.5a1.289,1.289,0,0,1-.171.418.37.37,0,0,1-.294.1,3.639,3.639,0,0,1-.931-.219,8.3,8.3,0,0,0-2.631-.484Zm17.7,0a9.6,9.6,0,0,0-4.873,1.264,9.58,9.58,0,0,0-4.769,8.246A9.1,9.1,0,0,0,52.1,39.724a9.359,9.359,0,0,0,5.358,3.287A8.653,8.653,0,0,1,59.5,44.93a16.085,16.085,0,0,0,2.546,2.508,7.65,7.65,0,0,0,2.242,1.112,8.829,8.829,0,0,0,2.584.361,7.236,7.236,0,0,0,3.021-.6l-.2-.494a4.81,4.81,0,0,1-1.643.276,4.324,4.324,0,0,1-2.375-.779A14.771,14.771,0,0,1,62.7,44.331a10.222,10.222,0,0,0-1.159-1.32,9.378,9.378,0,0,0,5.6-3.306,9.194,9.194,0,0,0,2.185-6.023,9.043,9.043,0,0,0-2.84-6.754,9.639,9.639,0,0,0-6.973-2.755Zm11.048,0,.029.579c1.189,0,1.856.35,2,1.054a8.012,8.012,0,0,1,.085,1.387l-.009,12.816a2.866,2.866,0,0,1-.408,1.833,2.188,2.188,0,0,1-1.349.494l-.029.58H82.735l.3-2.907H82.5a2.322,2.322,0,0,1-1.073,1.681,6.563,6.563,0,0,1-3.011.484H77.292q-1.951,0-2.251-1.416a2.973,2.973,0,0,1-.057-.608l.047-12.958a3.331,3.331,0,0,1,.371-1.909,1.849,1.849,0,0,1,1.368-.532l-.028-.579H70.556Zm-10.859.7a6.005,6.005,0,0,1,4.931,2.394,10.309,10.309,0,0,1,1.9,6.574,9.77,9.77,0,0,1-1.919,6.327,6.23,6.23,0,0,1-5.1,2.375,5.964,5.964,0,0,1-4.95-2.451,10.13,10.13,0,0,1-1.89-6.375,10.068,10.068,0,0,1,1.909-6.441,6.2,6.2,0,0,1,5.12-2.4ZM86.963,27.63a.826.826,0,0,0-.674.294.8.8,0,0,0-.162.722,1.273,1.273,0,0,0,.466.731,1.247,1.247,0,0,0,.808.314.758.758,0,0,0,.646-.314.879.879,0,0,0,.143-.731,1.248,1.248,0,0,0-.446-.722,1.2,1.2,0,0,0-.779-.294ZM94.781,29.6q-.737,2.835-3.192,3.078l.019.542h1.909l-.038,6.4a13.557,13.557,0,0,0,.114,2.195,1.581,1.581,0,0,0,1.739,1.339q2.106,0,4.417-2.565l-.465-.4A4.573,4.573,0,0,1,96.33,41.88c-.528,0-.855-.3-.979-.9a2.3,2.3,0,0,1-.047-.513l.019-7.248h2.916l-.029-.865H95.332V29.6h-.551Zm11.276,2.413a4.625,4.625,0,0,0-3.99,2.366,6.718,6.718,0,0,0-.941,5.244,4.519,4.519,0,0,0,1.434,2.612,4.085,4.085,0,0,0,2.736.922,5.48,5.48,0,0,0,3.04-.779A7.137,7.137,0,0,0,110,39.857l-.408-.428a4.424,4.424,0,0,1-3.7,2.252c-1.7,0-2.746-.935-3.135-2.793a6.8,6.8,0,0,1-.114-.76,9.88,9.88,0,0,0,4.6-1.71c1.036-.822,2.075-1.693,1.881-2.613a2.117,2.117,0,0,0-.836-1.3,4.9,4.9,0,0,0-2.233-.494Zm-17.831.067-3.515.808v.627l1.216-.152a.941.941,0,0,1,1.045.8,4.291,4.291,0,0,1,.067.741L87,40.645c-.01.8-.1,1.258-.275,1.4a2.846,2.846,0,0,1-1.416.209l-.019.541h5.576l-.009-.542a3.881,3.881,0,0,1-1.5-.181.9.9,0,0,1-.437-.665,7.046,7.046,0,0,1-.076-1.216l.019-8.113h-.636Zm16.938,1.064a1.606,1.606,0,0,1,1,.389,1.5,1.5,0,0,1,.589.855c.318,1.528-1.037,2.584-4.085,3.173a5.383,5.383,0,0,1,.6-3.04,2.177,2.177,0,0,1,1.9-1.378Z" fill="#003b57"/>
    <path class="colorize-70 " d="M33.936,2.229H3.686A3.7,3.7,0,0,0,0,5.915v33.36a3.7,3.7,0,0,0,3.686,3.686H23.609c-.226-9.913,3.159-29.152,10.327-40.732Z" fill="#0f80cc"/>
    <path d="M32.837,3.3H3.686A2.614,2.614,0,0,0,1.075,5.915V36.841c6.6-2.534,16.511-4.72,23.362-4.621A212.737,212.737,0,0,1,32.837,3.3Z" fill="url(#a)"/>
    <path class="colorize" d="M40.992,1.137C38.92-.71,36.411.032,33.936,2.229c-.368.326-.734.688-1.1,1.075C28.6,7.8,24.671,16.119,23.449,22.474a17.5,17.5,0,0,1,1.092,3.137c.063.241.119.468.165.66.107.456.165.752.165.752s-.038-.144-.194-.6c-.03-.087-.063-.181-.1-.293q-.031-.082-.065-.162c-.276-.642-1.04-2-1.377-2.588q-.4,1.173-.755,2.361a20.889,20.889,0,0,1,1.563,4.821s-.051-.2-.3-.886A32.807,32.807,0,0,0,22.1,26.74a6.949,6.949,0,0,0-.454,2.969,10.35,10.35,0,0,1,.848,2.382c.575,2.21.974,4.9.974,4.9s.013.178.035.453a44.951,44.951,0,0,0,.112,5.518A19.558,19.558,0,0,0,24.615,48.3l.31-.169a23.865,23.865,0,0,1-.824-7.969,60.729,60.729,0,0,1,3.337-16.68C30.9,14.341,35.7,7.007,40.093,3.505c-4,3.617-9.425,15.324-11.048,19.66a78.6,78.6,0,0,0-3.88,13.776c1.339-4.092,5.667-5.851,5.667-5.851s2.123-2.618,4.6-6.359a45.139,45.139,0,0,0-4.744,1.263c-1.206.506-1.531.678-1.531.678a41.2,41.2,0,0,1,7.256-3.455c4.608-7.258,9.629-17.569,4.573-22.079" fill="#003b57"/>
  </g>
</svg>
