<svg xmlns="http://www.w3.org/2000/svg" width="128" height="128" viewBox="0 0 128 128">
  <path d="M111,48.719V79.328a9.018,9.018,0,0,1-4.528,7.811L80,102.3a16.992,16.992,0,0,0-2.976-5.209l26.472-15.157a3.008,3.008,0,0,0,1.509-2.6V48.719a16.155,16.155,0,0,0,6,0ZM50.981,97.089,24.509,81.932A3.008,3.008,0,0,1,23,79.328V48.719a16.155,16.155,0,0,1-6,0V79.328a9.021,9.021,0,0,0,4.528,7.811L48.005,102.3A16.992,16.992,0,0,1,50.981,97.089Z" fill="#101012"/>
  <path d="M64,94a14,14,0,1,1-14,14A14.015,14.015,0,0,1,64,94m0-6a20,20,0,1,0,20,20A20,20,0,0,0,64,88ZM20,18A14,14,0,1,1,6,32,14.015,14.015,0,0,1,20,18m0-6A20,20,0,1,0,40,32,20,20,0,0,0,20,12Zm88,6A14,14,0,1,1,94,32a14.015,14.015,0,0,1,14-14m0-6a20,20,0,1,0,20,20,20,20,0,0,0-20-20Z" fill="#5c93e5"/>
</svg>
