<svg xmlns="http://www.w3.org/2000/svg" width="128" height="128" viewBox="0 0 128 128">
  <path d="M48.583,103.782,16,85.126V47.473a15.444,15.444,0,0,0,8,0V80.487L52.558,96.839A15.978,15.978,0,0,0,48.583,103.782ZM108,48a15.905,15.905,0,0,1-4-.527V80.487L75.442,96.839a15.978,15.978,0,0,1,3.975,6.943L112,85.126V47.473A15.905,15.905,0,0,1,108,48Z" fill="#111"/>
  <path d="M64,96a12,12,0,1,1-12,12A12.013,12.013,0,0,1,64,96m0-8a20,20,0,1,0,20,20A20,20,0,0,0,64,88ZM20,20A12,12,0,1,1,8,32,12.013,12.013,0,0,1,20,20m0-8A20,20,0,1,0,40,32,20,20,0,0,0,20,12Zm88,8A12,12,0,1,1,96,32a12.013,12.013,0,0,1,12-12m0-8a20,20,0,1,0,20,20,20,20,0,0,0-20-20Z" fill="#5c93e5"/>
</svg>
