<svg xmlns="http://www.w3.org/2000/svg" width="320" height="320" viewBox="0 0 320 320">
  <g>
    <g>
      <polygon points="224.717 273.363 229.806 263.348 240.314 263.184 241.791 268.274 241.627 273.035 236.373 275.826 229.97 275.826 224.717 273.363" fill="#736673"/>
      <polygon points="241.791 268.274 236.373 275.826 241.627 273.035 241.791 268.274" fill="#665c66"/>
    </g>
    <g>
      <path d="M244.543,274.7c-8.246-11.78-32.984-11.275-29.45-2.356" fill="none" stroke="#e6e6eb" stroke-linecap="round" stroke-miterlimit="10" stroke-width="1.886"/>
      <polygon points="245.112 275.407 243.525 276.899 242.7 276.899 242.288 276.153 241.97 274.519 241.304 272.456 244.414 274.519 245.112 275.407" fill="#e6e6eb"/>
    </g>
    <path d="M290.238,268.743l-6.571,2.741-7.542-3.46-5.173,1.73-2.59-.87-4.02-1.2-2,3.441-4.253-2.293-9.631,4.52c-1.874,5.149-1.091,10.781,1.721,15.857L256.568,293l1.45,5.46a34.869,34.869,0,0,0,5.325,2.576c14.09,5.39,28.919.854,33.121-10.132C299.289,283.521,296.588,275.106,290.238,268.743Z" fill="#e6e6eb"/>
    <polygon points="252.339 272.625 249.66 271.981 250.342 270.506 253.436 271.02 252.339 272.625" fill="#d9d9de"/>
    <polygon points="255.625 271.125 252.945 270.481 253.628 269.006 256.656 269.509 255.625 271.125" fill="#d9d9de"/>
    <path d="M264.531,286.681l1.065.294a3,3,0,0,1,2.174,2.482l.333,2.415a3.019,3.019,0,0,1-.015.92l-.134.777a3,3,0,0,1-4.03,2.292l-2.21-.846a3,3,0,0,1-1.9-3.2l.239-1.792a3,3,0,0,1,.669-1.524l.708-.849A3,3,0,0,1,264.531,286.681Z" fill="#b6b6ba"/>
    <path d="M264.54,282.787h0a1.9,1.9,0,0,0-.681-1.831l-3.322-2.653a1.9,1.9,0,0,0-3.048,1.137l-.016.088a1.89,1.89,0,0,1-.207.577l-.784,1.411a1.9,1.9,0,0,0,1.657,2.817h4.537A1.9,1.9,0,0,0,264.54,282.787Z" fill="#b6b6ba"/>
    <polygon points="290.173 268.77 283.667 271.484 276.125 268.024 270.952 269.754 267.833 268.25 264.342 267.686 262.346 271.127 263.833 271.899 262.667 275.631 263.833 278.5 268.167 280 270.333 275.333 278.833 276.167 283.726 286.889 285.778 276.63 292.161 277.77 294.384 274 290.907 269.432 290.173 268.77" fill="#b6b6ba"/>
    <polygon points="245 297.667 248.333 300.667 253.333 300 254.667 296.333 250 293.667 246 294.333 245 297.667" fill="#736673"/>
    <polygon points="251.427 302.593 252.673 303.16 254.6 303.16 254.487 301.913 252.447 301.119 251.427 302.593" fill="#736673"/>
    <polygon points="250.176 289.207 251.725 290.103 251.362 288.124 249.419 287.723 250.176 289.207" fill="#fff"/>
    <polygon points="248.913 286.556 251.112 286.556 250.572 284.833 248.377 285.063 248.913 286.556" fill="#d9d9de"/>
    <polygon points="247.864 283.142 250.279 283.142 249.744 281.041 247.362 281.374 247.864 283.142" fill="#d9d9de"/>
    <polygon points="247.436 279.332 249.419 279.332 249.503 277.458 247.519 277.458 247.436 279.332" fill="#d9d9de"/>
    <polygon points="247.788 275.708 249.503 275.708 249.744 274.519 248.079 274.519 247.788 275.708" fill="#d9d9de"/>
    <g>
      <polygon points="92.028 302.605 55.349 285.446 57.637 280.556 93.842 298.09 92.028 302.605" fill="#e6e6eb"/>
      <circle cx="91.852" cy="302.242" r="3.502" fill="#e6e6eb"/>
      <circle cx="92.723" cy="297.816" r="3.431" fill="#e6e6eb"/>
      <circle cx="55.89" cy="285.901" r="3.246" fill="#e6e6eb"/>
      <circle cx="57.106" cy="281.784" r="3.381" fill="#e6e6eb"/>
    </g>
    <polygon points="197.479 311.045 233.697 292.936 236.112 297.765 199.893 315.271 197.479 311.045" fill="#e6e6eb"/>
    <circle cx="200.803" cy="314.563" r="3.431" fill="#e6e6eb"/>
    <circle cx="232.341" cy="293.207" r="2.734" fill="#e6e6eb"/>
    <circle cx="235.478" cy="296.96" r="3.007" fill="#e6e6eb"/>
    <g>
      <polygon points="175.489 261.356 142.45 256.008 141.737 260.413 174.627 265.286 175.489 261.356" fill="#e6e6eb"/>
      <circle cx="175.2" cy="261.523" r="2.894" fill="#e6e6eb"/>
      <circle cx="173.735" cy="264.952" r="2.835" fill="#e6e6eb"/>
      <circle cx="143.031" cy="255.949" r="2.683" fill="#e6e6eb"/>
      <circle cx="141.946" cy="259.327" r="2.794" fill="#e6e6eb"/>
    </g>
    <path d="M59.575,304.753c9.982,3.555,21.759,1.467,19.247-4.874" fill="none" stroke="#e6e6eb" stroke-linecap="round" stroke-miterlimit="10" stroke-width="1.886"/>
    <g>
      <polygon points="85.675 274.822 88.675 265.322 91.925 265.072 99.925 273.572 95.925 276.572 85.675 274.822" fill="#736673"/>
      <polygon points="91.925 265.072 95.925 276.572 99.925 273.572 91.925 265.072" fill="#665c66"/>
    </g>
    <polygon points="163.061 304.657 169.498 308.077 175.734 306.065 175.331 301.841 172.918 300.634 170.102 300.031 166.079 301.238 163.262 302.042 163.061 304.657" fill="#736673"/>
    <polygon points="182.305 306.628 179.231 305.381 174.328 307.791 174.328 309.204 178.483 310.866 182.305 308.04 182.305 306.628" fill="#736673"/>
    <line x1="120.379" y1="304.483" x2="124.931" y2="302.207" fill="none" stroke="#e6e6eb" stroke-linecap="round" stroke-miterlimit="10" stroke-width="1.886"/>
    <line x1="117.345" y1="305.241" x2="112.983" y2="306.948" fill="none" stroke="#e6e6eb" stroke-linecap="round" stroke-miterlimit="10" stroke-width="1.886"/>
    <line x1="126.448" y1="304.103" x2="122.655" y2="306.379" fill="none" stroke="#e6e6eb" stroke-linecap="round" stroke-miterlimit="10" stroke-width="1.886"/>
    <line x1="119.81" y1="307.517" x2="115.828" y2="309.983" fill="none" stroke="#e6e6eb" stroke-linecap="round" stroke-miterlimit="10" stroke-width="1.886"/>
    <line x1="131.759" y1="304.103" x2="132.517" y2="308.086" fill="none" stroke="#e6e6eb" stroke-linecap="round" stroke-miterlimit="10" stroke-width="1.886"/>
    <line x1="131.599" y1="310.477" x2="130.65" y2="312.183" fill="none" stroke="#e6e6eb" stroke-linecap="round" stroke-miterlimit="10" stroke-width="1.886"/>
    <line x1="127.74" y1="305.576" x2="125.105" y2="308.635" fill="none" stroke="#e6e6eb" stroke-linecap="round" stroke-miterlimit="10" stroke-width="1.886"/>
    <line x1="123.223" y1="309.952" x2="120.259" y2="312.963" fill="none" stroke="#e6e6eb" stroke-linecap="round" stroke-miterlimit="10" stroke-width="1.886"/>
    <circle cx="197.435" cy="310.997" r="3.431" fill="#e6e6eb"/>
    <polygon points="262.346 271.127 263.833 271.899 266.188 269.751 270.952 269.754 263.653 263.184 261.039 263.946 262.346 271.127" fill="#fff"/>
  </g>
  <g>
    <ellipse cx="122.442" cy="273.558" rx="8.416" ry="2.074" fill="#333"/>
    <ellipse cx="120.565" cy="286.392" rx="14.429" ry="3.555" fill="#333"/>
    <path d="M132.434,182.07S147.8,207.533,147.8,224.876c0,8.465-16.328,21.194-16.328,21.194l-15.516,2.665s-5.373-14.205-5.373-22.22S132.434,182.07,132.434,182.07Z" fill="#101012"/>
    <polygon points="114.562 290.327 118.402 290.022 118.402 287.684 115.026 289.553 114.562 290.327" fill="#fff"/>
    <ellipse cx="154.13" cy="189.786" rx="31.485" ry="10.211" transform="translate(-79.924 260.452) rotate(-67.719)" fill="#101012"/>
    <polygon points="118.895 158.921 114.026 232.765 117.365 273.558 127.328 273.511 135.766 235.928 173.729 175.28 118.895 158.921" fill="#101012"/>
    <ellipse cx="123.176" cy="186.202" rx="30.717" ry="10.211" transform="translate(-78.256 282.476) rotate(-82.06)" fill="#101012"/>
    <polygon points="115.26 213.478 112.212 195.745 105.826 210.864 115.26 213.478" fill="#fff"/>
    <polygon points="134.994 286.392 130.826 273.375 114.069 273.35 106.136 286.392 134.994 286.392" fill="#333"/>
    <ellipse cx="122.442" cy="273.558" rx="6.734" ry="1.659" fill="#101012"/>
    <polygon points="115.708 273.558 112.883 267.655 117.268 258.286 127.834 258.286 131.422 266.854 129.161 273.671 115.708 273.558" fill="#101012"/>
    <circle cx="123.986" cy="242.424" r="11.407" fill="#101012"/>
    <ellipse cx="200.269" cy="273.558" rx="8.416" ry="2.074" fill="#333"/>
    <ellipse cx="202.146" cy="286.392" rx="14.429" ry="3.555" fill="#333"/>
    <path d="M190.277,182.07s-15.369,25.463-15.369,42.806c0,8.465,16.328,21.194,16.328,21.194l15.516,2.665s5.373-14.205,5.373-22.22S190.277,182.07,190.277,182.07Z" fill="#101012"/>
    <polygon points="208.149 290.327 204.309 290.022 204.309 287.684 207.685 289.553 208.149 290.327" fill="#fff"/>
    <ellipse cx="168.581" cy="189.786" rx="10.211" ry="31.485" transform="translate(-59.37 78.086) rotate(-22.281)" fill="#101012"/>
    <polygon points="203.816 158.921 208.685 232.765 205.346 273.558 195.383 273.511 186.945 235.928 148.982 175.28 203.816 158.921" fill="#101012"/>
    <ellipse cx="199.535" cy="186.202" rx="10.211" ry="30.717" transform="translate(-23.809 29.349) rotate(-7.94)" fill="#101012"/>
    <polygon points="207.452 213.478 210.499 195.745 216.885 210.864 207.452 213.478" fill="#fff"/>
    <polygon points="187.717 286.392 191.885 273.375 208.643 273.35 216.575 286.392 187.717 286.392" fill="#333"/>
    <ellipse cx="200.269" cy="273.558" rx="6.734" ry="1.659" fill="#101012"/>
    <polygon points="207.003 273.558 209.828 267.655 205.443 258.286 194.877 258.286 191.289 266.854 193.55 273.671 207.003 273.558" fill="#101012"/>
    <circle cx="198.725" cy="242.424" r="11.407" fill="#101012"/>
  </g>
  <g>
    <polygon points="133.771 67.529 95.161 87.161 121.55 166.946 161.229 177.903 201.044 166.946 227.433 87.161 188.823 67.529 133.771 67.529" fill="#101012"/>
    <polygon points="194.717 70.803 187.695 53.056 186.692 70.958 194.717 70.803" fill="#101012"/>
    <polygon points="134.222 54.831 128.821 71.112 139.469 78.597 134.222 54.831" fill="#101012"/>
    <polygon points="130.965 64.65 112.005 78.597 132.525 78.597 130.965 64.65" fill="#101012"/>
    <polygon points="192.282 64.65 211.21 78.912 190.705 80.448 192.282 64.65" fill="#101012"/>
    <polyline points="213.192 130.217 199.599 142.747 197.099 154.773 210.651 174.431 213.192 130.217" fill="#fff"/>
    <polygon points="108.914 130.217 122.957 144.724 125.735 156.144 114.026 171.113 108.914 130.217" fill="#fff"/>
  </g>
  <g>
    <polygon points="95.161 87.161 64.623 126.822 95.488 145.341 109.062 136.623 119.562 118.798 95.161 87.161" fill="#101012"/>
    <path d="M64.623,126.822l2.384,21.659L80.055,182.8s11.523-1.475,11.042-11.63c-.548-11.57,7.032-17.22,4.391-25.825C90.932,130.5,64.623,126.822,64.623,126.822Z" fill="#101012"/>
    <ellipse cx="94.463" cy="121.565" rx="23.875" ry="23.632" fill="#101012"/>
    <ellipse cx="114.806" cy="104.899" rx="28.477" ry="28.187" fill="#101012"/>
    <polyline points="108.23 145.315 106.995 143.623 110.225 140.931 111.691 142.86 113.148 140.586 109.97 134.552 104.294 139.694 97.923 132.001 101.87 128.488 104.804 133.452 107.393 131.186 101.506 123.59 94.569 129.572 87.74 122.343 92.272 118.674 95.864 122.99 99.364 120.523 93.213 113.077 86.303 119.114 80.403 112.81 84.667 109.255 87.58 112.816 90.557 110.417 83.648 104.079 77.938 110.5 70.693 101.663 73.003 99.385 76.822 102.973 79.485 100.774 75.086 96.492" fill="none" stroke="#fff" stroke-miterlimit="10" stroke-width="1.389" opacity="0.25"/>
    <polyline points="80.055 182.796 86.057 191.525 96.423 194.253 105.152 185.524 102.506 175.592 90.382 172.337 80.055 182.796" fill="#101012"/>
    <polygon points="91.096 169.944 98.907 172.03 101.292 180.054 85.241 179.92 91.096 169.944" fill="#101012"/>
    <polygon points="227.472 87.161 258.01 126.822 227.145 145.341 213.571 136.623 203.071 118.798 227.472 87.161" fill="#101012"/>
    <path d="M258.01,126.822l-2.384,21.659L242.577,182.8s-11.523-1.475-11.042-11.63c.548-11.57-7.031-17.22-4.39-25.825C231.7,130.5,258.01,126.822,258.01,126.822Z" fill="#101012"/>
    <ellipse cx="228.17" cy="121.565" rx="23.875" ry="23.632" fill="#101012"/>
    <ellipse cx="207.826" cy="104.899" rx="28.477" ry="28.187" fill="#101012"/>
    <polyline points="242.577 182.796 236.576 191.525 226.21 194.253 217.481 185.524 220.126 175.592 232.25 172.337 242.577 182.796" fill="#101012"/>
    <polygon points="231.536 169.944 223.726 172.03 221.34 180.054 237.391 179.92 231.536 169.944" fill="#101012"/>
  </g>
  <g>
    <path d="M111.623,58.518l-.4-.756c18.824-7.272,23.54-17.458,23.54-17.458l5.782,14.285S135.38,62.892,111.623,58.518Z" fill="#101012"/>
    <path d="M210.815,58.518l.4-.756C191.909,50.79,187.826,40.3,187.826,40.3l-5.937,14.285S187.058,62.892,210.815,58.518Z" fill="#101012"/>
    <path d="M141.791,31.587c-15.82-5.039-43.777,14.481-60.086-12.364-2.658-4.374-2.679-4.157-1.9.531,4.424,26.753,40.865,29.719,57.465,26.342C147.255,44.063,148.93,33.861,141.791,31.587Z" fill="#333"/>
    <path d="M180.975,31.587c15.82-5.039,43.777,14.481,60.086-12.364,2.658-4.374,2.679-4.157,1.9.531C238.541,46.507,202.1,49.473,185.5,46.1,175.511,44.063,173.836,33.861,180.975,31.587Z" fill="#333"/>
    <path d="M143.957,32.635,133.771,45.257V67.529l8.939,11.145,7.362,16.207h22.45l7.86-16.207,8.441-11.145V45.257L178.739,32.763a87.922,87.922,0,0,0-17.51-1.968A89.6,89.6,0,0,0,143.957,32.635Z" fill="#101012"/>
    <polygon points="173.874 64.322 182.761 59.306 183.22 61.081 183.22 63.28 175.153 65.479 173.874 64.322" fill="#e62e2e"/>
    <polygon points="148.72 64.322 139.783 59.152 139.374 61.158 139.374 63.28 147.441 65.479 148.72 64.322" fill="#e62e2e"/>
    <polygon points="171.236 82.108 161.34 81.24 151.93 82.663 151.184 87.884 151.194 94.229 156.652 95.479 165.958 95.479 171.399 94.229 171.986 87.928 171.236 82.108" fill="#333"/>
    <path d="M171.677,84.6l-3.2,2.165a1,1,0,0,0,.029,1.676l3.3,2.068a1,1,0,0,0,1.531-.87l-.1-4.234A1,1,0,0,0,171.677,84.6Z" fill="#101012"/>
    <path d="M151.423,84.6l3.2,2.165a1,1,0,0,1-.029,1.676l-3.3,2.068a1,1,0,0,1-1.532-.87l.1-4.234A1,1,0,0,1,151.423,84.6Z" fill="#101012"/>
    <path d="M178.739,32.763c0,4.478,6.816,13.886,10.084,13.886s3.82-6.345,3.82-6.345Z" fill="#333"/>
    <path d="M143.849,32.763c0,4.478-6.815,13.886-10.083,13.886s-3.82-6.345-3.82-6.345Z" fill="#333"/>
  </g>
</svg>
