<svg xmlns="http://www.w3.org/2000/svg" xmlns:xlink="http://www.w3.org/1999/xlink" width="220" height="220" viewBox="0 0 220 220">
  <defs>
    <filter id="a" name="blur">
      <feGaussianBlur stdDeviation="0.9"/>
    </filter>
  </defs>
  <g style="isolation: isolate">
    <g>
      <path d="M7.446,10a6,6,0,0,0-5.863,7.275l17.392,80A6,6,0,0,0,24.838,102H195.166a6,6,0,0,0,5.863-4.725l17.391-80A6,6,0,0,0,212.557,10Z" fill="#111"/>
      <polygon points="191.275 94 28.755 94 12.002 18 208.029 18 191.275 94" fill="#28282c"/>
      <polygon points="191.275 94 150.645 94 159.022 18 208.029 18 191.275 94" fill="#2f2f36"/>
      <polygon points="61.259 94 28.755 94 12.002 18 51.207 18 61.259 94" fill="#2f2f36"/>
      <polygon points="206.729 23.899 158.372 23.899 158.479 22.927 206.943 22.927 206.729 23.899" fill="#28282c"/>
      <polygon points="200.901 50.338 155.458 50.338 155.553 49.479 201.09 49.479 200.901 50.338" fill="#28282c"/>
      <polygon points="195.735 73.771 152.875 73.771 152.959 73.007 195.903 73.007 195.735 73.771" fill="#28282c"/>
      <polygon points="193.765 82.706 151.89 82.706 152.542 76.796 195.068 76.796 193.765 82.706" fill="#fff" opacity="0.1"/>
      <polygon points="22.111 31.525 17.359 31.525 16.547 27.746 21.34 27.746 22.111 31.525" fill="#777" opacity="0.25"/>
      <polygon points="23.98 40.693 19.33 40.693 18.552 37.073 23.242 37.073 23.98 40.693" fill="#777" opacity="0.25"/>
      <polygon points="192.988 32.46 174.023 32.46 174.302 30.587 193.35 30.587 192.988 32.46" fill="#bbb" opacity="0.25"/>
      <polygon points="171.652 32.46 159.799 32.46 160.016 30.587 171.921 30.587 171.652 32.46" fill="#777" opacity="0.25"/>
      <polygon points="196.789 37.073 173.337 37.073 173.609 35.24 197.163 35.24 196.789 37.073" fill="#bbb" opacity="0.25"/>
      <polygon points="170.991 37.073 161.61 37.073 161.833 35.24 171.254 35.24 170.991 37.073" fill="#777" opacity="0.25"/>
      <polygon points="27.579 35.24 18.158 35.24 17.76 33.391 27.222 33.391 27.579 35.24" fill="#777" opacity="0.25"/>
      <polygon points="33.205 64.405 24.426 64.405 24.081 62.8 32.895 62.8 33.205 64.405" fill="#777" opacity="0.25"/>
      <polygon points="191.227 41.589 172.665 41.589 172.932 39.794 191.574 39.794 191.227 41.589" fill="#bbb" opacity="0.25"/>
      <polygon points="48.11 30.587 24.3 30.587 23.925 28.697 47.839 28.697 48.11 30.587" fill="#999" opacity="0.25"/>
      <polygon points="93.312 29.644 62.292 29.644 62.083 27.746 93.239 27.746 93.312 29.644" fill="#bbb" opacity="0.25"/>
      <polygon points="93.739 40.693 63.51 40.693 63.311 38.891 93.669 38.891 93.739 40.693" fill="#bbb" opacity="0.25"/>
      <polygon points="94.529 61.182 65.768 61.182 65.588 59.551 94.466 59.551 94.529 61.182" fill="#bbb" opacity="0.25"/>
      <polygon points="94.896 70.698 66.817 70.698 66.646 69.144 94.836 69.144 94.896 70.698" fill="#bbb" opacity="0.25"/>
      <polygon points="95.246 79.774 67.817 79.774 67.654 78.29 95.189 78.29 95.246 79.774" fill="#bbb" opacity="0.25"/>
      <polygon points="95.58 88.438 68.772 88.438 68.616 87.022 95.526 87.022 95.58 88.438" fill="#bbb" opacity="0.25"/>
      <polygon points="100.594 35.24 62.909 35.24 62.705 33.391 100.553 33.391 100.594 35.24" fill="#bbb" opacity="0.25"/>
      <polygon points="100.832 46.009 64.096 46.009 63.902 44.252 100.793 44.252 100.832 46.009" fill="#bbb" opacity="0.25"/>
      <polygon points="101.057 56.249 65.224 56.249 65.04 54.577 101.02 54.577 101.057 56.249" fill="#bbb" opacity="0.25"/>
      <polygon points="101.272 65.997 66.299 65.997 66.123 64.405 101.237 64.405 101.272 65.997" fill="#bbb" opacity="0.25"/>
      <polygon points="101.477 75.289 67.323 75.289 67.156 73.771 101.444 73.771 101.477 75.289" fill="#bbb" opacity="0.25"/>
      <polygon points="101.672 84.156 68.3 84.156 68.141 82.706 101.641 82.706 101.672 84.156" fill="#bbb" opacity="0.25"/>
      <polygon points="101.859 92.625 69.234 92.625 69.081 91.24 101.829 91.24 101.859 92.625" fill="#bbb" opacity="0.25"/>
      <polygon points="129.105 29.644 105.243 29.644 105.222 27.746 129.189 27.746 129.105 29.644" fill="#bbb" opacity="0.25"/>
      <polygon points="124.147 35.24 105.305 35.24 105.284 33.391 124.209 33.391 124.147 35.24" fill="#bbb" opacity="0.25"/>
      <polygon points="123.791 46.009 105.424 46.009 105.404 44.252 123.849 44.252 123.791 46.009" fill="#bbb" opacity="0.25"/>
      <polygon points="123.453 56.249 105.536 56.249 105.518 54.577 123.508 54.577 123.453 56.249" fill="#bbb" opacity="0.25"/>
      <polygon points="123.13 65.997 105.644 65.997 105.626 64.405 123.183 64.405 123.13 65.997" fill="#bbb" opacity="0.25"/>
      <polygon points="122.53 84.156 105.844 84.156 105.828 82.706 122.578 82.706 122.53 84.156" fill="#bbb" opacity="0.25"/>
      <polygon points="122.25 92.625 105.937 92.625 105.922 91.24 122.296 91.24 122.25 92.625" fill="#bbb" opacity="0.25"/>
      <polygon points="127.714 61.182 105.591 61.182 105.573 59.551 127.786 59.551 127.714 61.182" fill="#bbb" opacity="0.25"/>
      <polygon points="127.295 70.698 105.696 70.698 105.679 69.144 127.363 69.144 127.295 70.698" fill="#bbb" opacity="0.25"/>
      <polygon points="126.895 79.774 105.796 79.774 105.779 78.29 126.96 78.29 126.895 79.774" fill="#bbb" opacity="0.25"/>
      <polygon points="126.513 88.438 105.891 88.438 105.876 87.022 126.575 87.022 126.513 88.438" fill="#bbb" opacity="0.25"/>
      <polygon points="150.58 29.644 133.877 29.644 133.982 27.746 150.758 27.746 150.58 29.644" fill="#bbb" opacity="0.25"/>
      <polygon points="152.411 35.24 133.569 35.24 133.671 33.391 152.595 33.391 152.411 35.24" fill="#bbb" opacity="0.25"/>
      <polygon points="149.545 40.693 133.268 40.693 133.368 38.891 149.714 38.891 149.545 40.693" fill="#bbb" opacity="0.25"/>
      <polygon points="147.626 61.182 132.139 61.182 132.229 59.551 147.778 59.551 147.626 61.182" fill="#bbb" opacity="0.25"/>
      <polygon points="146.734 70.698 131.615 70.698 131.7 69.144 146.88 69.144 146.734 70.698" fill="#bbb" opacity="0.25"/>
      <polygon points="145.884 79.774 131.114 79.774 131.196 78.29 146.023 78.29 145.884 79.774" fill="#bbb" opacity="0.25"/>
      <polygon points="145.072 88.438 130.637 88.438 130.715 87.022 145.205 87.022 145.072 88.438" fill="#bbb" opacity="0.25"/>
      <polygon points="151.343 46.009 132.975 46.009 133.072 44.252 151.517 44.252 151.343 46.009" fill="#bbb" opacity="0.25"/>
      <polygon points="149.36 65.997 131.874 65.997 131.961 64.405 149.518 64.405 149.36 65.997" fill="#bbb" opacity="0.25"/>
      <polygon points="148.439 75.289 131.362 75.289 131.445 73.771 148.589 73.771 148.439 75.289" fill="#bbb" opacity="0.25"/>
      <polygon points="147.559 84.156 130.873 84.156 130.953 82.706 147.703 82.706 147.559 84.156" fill="#bbb" opacity="0.25"/>
      <polygon points="25.064 46.009 20.472 46.009 19.714 42.48 24.345 42.48 25.064 46.009" fill="#777" opacity="0.25"/>
      <polygon points="46.396 50.338 28.219 50.338 27.878 48.617 46.13 48.617 46.396 50.338" fill="#999" opacity="0.25"/>
      <polygon points="44.769 39.794 26.127 39.794 25.768 37.984 44.49 37.984 44.769 39.794" fill="#999" opacity="0.25"/>
      <polygon points="49.177 68.362 31.795 68.362 31.483 66.789 48.934 66.789 49.177 68.362" fill="#999" opacity="0.25"/>
      <polygon points="50.194 45.132 27.186 45.132 26.836 43.368 49.942 43.368 50.194 45.132" fill="#999" opacity="0.25"/>
      <polygon points="26.121 51.193 21.586 51.193 20.847 47.751 25.419 47.751 26.121 51.193" fill="#777" opacity="0.25"/>
      <polygon points="27.152 56.249 22.673 56.249 21.952 52.892 26.468 52.892 27.152 56.249" fill="#777" opacity="0.25"/>
      <polygon points="47.944 60.368 30.209 60.368 29.884 58.731 47.691 58.731 47.944 60.368" fill="#999" opacity="0.25"/>
      <polygon points="51.668 55.415 29.226 55.415 28.893 53.736 51.427 53.736 51.668 55.415" fill="#999" opacity="0.25"/>
      <polygon points="28.158 61.182 23.733 61.182 23.029 57.907 27.49 57.907 28.158 61.182" fill="#777" opacity="0.25"/>
      <polygon points="170.344 41.589 158.743 41.589 158.95 39.794 170.602 39.794 170.344 41.589" fill="#777" opacity="0.25"/>
      <polygon points="194.967 46.009 172.007 46.009 172.268 44.252 195.325 44.252 194.967 46.009" fill="#bbb" opacity="0.25"/>
      <polygon points="169.711 46.009 160.527 46.009 160.74 44.252 169.963 44.252 169.711 46.009" fill="#777" opacity="0.25"/>
      <polygon points="189.66 61.182 163.112 61.182 163.328 59.551 189.984 59.551 189.66 61.182" fill="#bbb" opacity="0.25"/>
      <polygon points="184.333 65.997 162.475 65.997 162.686 64.405 184.632 64.405 184.333 65.997" fill="#bbb" opacity="0.25"/>
      <polygon points="186.16 56.249 163.765 56.249 163.986 54.577 186.473 54.577 186.16 56.249" fill="#bbb" opacity="0.25"/>
      <polygon points="205.881 27.746 181.914 27.746 182.55 23.899 206.729 23.899 205.881 27.746" fill="#28282c"/>
      <path d="M18.64,20.477c.168.815-.511,1.473-1.517,1.473a2.174,2.174,0,0,1-2.138-1.473c-.176-.818.5-1.483,1.514-1.483A2.17,2.17,0,0,1,18.64,20.477Z" fill="#858585" opacity="0.25"/>
      <path d="M23.513,20.477c.159.815-.527,1.473-1.533,1.473a2.145,2.145,0,0,1-2.122-1.473c-.167-.818.519-1.483,1.531-1.483A2.14,2.14,0,0,1,23.513,20.477Z" fill="#858585" opacity="0.25"/>
      <path d="M28.386,20.477c.151.815-.543,1.473-1.549,1.473a2.117,2.117,0,0,1-2.106-1.473c-.157-.818.535-1.483,1.548-1.483A2.111,2.111,0,0,1,28.386,20.477Z" fill="#858585" opacity="0.25"/>
      <polygon points="50.594 77.545 33.617 77.545 33.319 76.044 50.363 76.044 50.594 77.545" fill="#999" opacity="0.25"/>
      <polygon points="52.041 73.007 32.717 73.007 32.412 71.471 51.813 71.471 52.041 73.007" fill="#999" opacity="0.25"/>
      <polygon points="12.002 18 208.029 18 191.275 94 28.755 94 12.002 18" fill="#395bac" opacity="0.4" style="mix-blend-mode: color-dodge"/>
      <g>
        <polygon points="161.42 57.08 156.95 57.08 157.337 53.736 161.844 53.736 161.42 57.08" fill="#736673"/>
        <polygon points="160.797 61.993 156.381 61.993 156.759 58.731 161.211 58.731 160.797 61.993" fill="#67678b"/>
        <polygon points="160.189 66.789 155.826 66.789 156.195 63.604 160.593 63.604 160.189 66.789" fill="#67678b"/>
        <path d="M29.462,67.577c.177.867-.651,1.567-1.849,1.567a2.508,2.508,0,0,1-2.5-1.567c-.187-.871.639-1.58,1.846-1.58A2.5,2.5,0,0,1,29.462,67.577Z" fill="#3e98cc" opacity="0.5"/>
        <path d="M31.342,76.8c.168.827-.644,1.494-1.813,1.494a2.439,2.439,0,0,1-2.44-1.494c-.178-.831.632-1.507,1.811-1.507A2.429,2.429,0,0,1,31.342,76.8Z" fill="#826eb8" opacity="0.5"/>
        <path d="M30.413,72.241c.173.846-.647,1.53-1.831,1.53a2.474,2.474,0,0,1-2.472-1.53c-.183-.851.636-1.543,1.829-1.543A2.462,2.462,0,0,1,30.413,72.241Z" fill="#395bac" opacity="0.5"/>
        <polygon points="60.015 30.587 55.253 30.587 54.772 26.79 59.576 26.79 60.015 30.587" fill="#395bac"/>
        <polygon points="60.66 36.159 55.959 36.159 55.49 32.46 60.232 32.46 60.66 36.159" fill="#736673"/>
        <polygon points="61.288 41.589 56.648 41.589 56.191 37.984 60.871 37.984 61.288 41.589" fill="#395bac"/>
        <polygon points="61.901 46.882 57.319 46.882 56.873 43.368 61.494 43.368 61.901 46.882" fill="#736673"/>
        <polygon points="63.081 57.08 58.611 57.08 58.187 53.736 62.694 53.736 63.081 57.08" fill="#67ce9d" opacity="0.8"/>
        <polygon points="63.65 61.993 59.234 61.993 58.82 58.731 63.272 58.731 63.65 61.993" fill="#67678b"/>
        <polygon points="64.205 66.789 59.842 66.789 59.438 63.604 63.836 63.604 64.205 66.789" fill="#68c1e8" opacity="0.8"/>
        <polygon points="64.747 71.471 60.435 71.471 60.041 68.362 64.387 68.362 64.747 71.471" fill="#68c1e8" opacity="0.8"/>
        <polygon points="65.276 76.044 61.015 76.044 60.63 73.007 64.924 73.007 65.276 76.044" fill="#736673" opacity="0.8"/>
        <polygon points="65.793 80.511 61.581 80.511 61.205 77.545 65.45 77.545 65.793 80.511" fill="#f66"/>
        <polygon points="66.298 84.876 62.134 84.876 61.767 81.977 65.963 81.977 66.298 84.876" fill="#67678b"/>
        <polygon points="66.792 89.143 62.675 89.143 62.316 86.309 66.464 86.309 66.792 89.143" fill="#67ce9d" opacity="0.8"/>
        <polygon points="67.275 93.314 63.204 93.314 62.853 90.543 66.954 90.543 67.275 93.314" fill="#395bac"/>
      </g>
      <g opacity="0.4" filter="url(#a)">
        <rect x="20" y="99.5" width="180" height="112" rx="6"/>
      </g>
      <rect x="20" y="98" width="180" height="112" rx="6" fill="#2f2f35"/>
      <path d="M53,136.33v10a2,2,0,0,1-2,2H38a2,2,0,0,1-2-2v-10a2,2,0,0,1,2-2H51A2,2,0,0,1,53,136.33Zm19.833-2h-10a2,2,0,0,0-2,2v10a2,2,0,0,0,2,2h10a2,2,0,0,0,2-2v-10A2,2,0,0,0,72.833,134.33Zm21.834,0h-10a2,2,0,0,0-2,2v10a2,2,0,0,0,2,2h10a2,2,0,0,0,2-2v-10A2,2,0,0,0,94.667,134.33Zm21.833,0h-10a2,2,0,0,0-2,2v10a2,2,0,0,0,2,2h10a2,2,0,0,0,2-2v-10A2,2,0,0,0,116.5,134.33Zm21.833,0h-10a2,2,0,0,0-2,2v10a2,2,0,0,0,2,2h10a2,2,0,0,0,2-2v-10a2,2,0,0,0-2-2Zm21.834,0h-10a2,2,0,0,0-2,2v10a2,2,0,0,0,2,2h10a2,2,0,0,0,2-2v-10A2,2,0,0,0,160.167,134.33Zm21.833,0H172a2,2,0,0,0-2,2v10a2,2,0,0,0,2,2h10a2,2,0,0,0,2-2v-10A2,2,0,0,0,182,134.33ZM48,156.66H38a2,2,0,0,0-2,2v10a2,2,0,0,0,2,2H48a2,2,0,0,0,2-2v-10A2,2,0,0,0,48,156.66Zm22.333,0h-10a2,2,0,0,0-2,2v10a2,2,0,0,0,2,2h10a2,2,0,0,0,2-2v-10A2,2,0,0,0,70.333,156.66Zm67,0H82.867a2,2,0,0,0-2,2v10a2,2,0,0,0,2,2h54.466a2,2,0,0,0,2-2v-10a2,2,0,0,0-2-2Zm22.334,0h-10a2,2,0,0,0-2,2v10a2,2,0,0,0,2,2h10a2,2,0,0,0,2-2v-10A2,2,0,0,0,159.667,156.66Zm22.333,0H172a2,2,0,0,0-2,2v10a2,2,0,0,0,2,2h10a2,2,0,0,0,2-2v-10A2,2,0,0,0,182,156.66ZM48,112H38a2,2,0,0,0-2,2v10a2,2,0,0,0,2,2H48a2,2,0,0,0,2-2V114A2,2,0,0,0,48,112Zm21.833,0h-10a2,2,0,0,0-2,2v10a2,2,0,0,0,2,2h10a2,2,0,0,0,2-2V114A2,2,0,0,0,69.833,112Zm21.834,0h-10a2,2,0,0,0-2,2v10a2,2,0,0,0,2,2h10a2,2,0,0,0,2-2V114A2,2,0,0,0,91.667,112Zm21.833,0h-10a2,2,0,0,0-2,2v10a2,2,0,0,0,2,2h10a2,2,0,0,0,2-2V114A2,2,0,0,0,113.5,112Zm21.833,0h-10a2,2,0,0,0-2,2v10a2,2,0,0,0,2,2h10a2,2,0,0,0,2-2V114a2,2,0,0,0-2-2Zm21.834,0h-10a2,2,0,0,0-2,2v10a2,2,0,0,0,2,2h10a2,2,0,0,0,2-2V114A2,2,0,0,0,157.167,112ZM182,112H169a2,2,0,0,0-2,2v10a2,2,0,0,0,2,2h13a2,2,0,0,0,2-2V114A2,2,0,0,0,182,112Z" fill="#111"/>
      <polygon points="153.007 52.044 57.973 52.044 57.538 48.617 153.366 48.617 153.007 52.044" fill="#395bac"/>
    </g>
  </g>
</svg>
