<svg xmlns="http://www.w3.org/2000/svg" xmlns:xlink="http://www.w3.org/1999/xlink" width="220" height="220" viewBox="0 0 220 220">
  <defs>
    <filter id="a" name="blur">
      <feGaussianBlur stdDeviation="0.9"/>
    </filter>
  </defs>
  <g style="isolation: isolate">
    <g>
      <path d="M7.446,10a6,6,0,0,0-5.863,7.275l17.392,80A6,6,0,0,0,24.838,102H195.166a6,6,0,0,0,5.863-4.725l17.391-80A6,6,0,0,0,212.557,10Z" fill="#111"/>
      <polygon points="191.275 94 28.755 94 12.002 18 208.029 18 191.275 94" fill="#28282c"/>
      <polygon points="191.275 94 150.645 94 159.022 18 208.029 18 191.275 94" fill="#2f2f36"/>
      <polygon points="61.259 94 28.755 94 12.002 18 51.207 18 61.259 94" fill="#2f2f36"/>
      <polygon points="206.729 23.899 158.372 23.899 158.479 22.927 206.943 22.927 206.729 23.899" fill="#28282c"/>
      <polygon points="200.901 50.338 155.458 50.338 155.553 49.479 201.09 49.479 200.901 50.338" fill="#28282c"/>
      <polygon points="195.735 73.771 152.875 73.771 152.959 73.007 195.903 73.007 195.735 73.771" fill="#28282c"/>
      <polygon points="22.111 31.525 17.359 31.525 16.547 27.746 21.34 27.746 22.111 31.525" fill="#777" opacity="0.25"/>
      <polygon points="23.98 40.693 19.33 40.693 18.552 37.073 23.242 37.073 23.98 40.693" fill="#777" opacity="0.25"/>
      <polygon points="192.988 32.46 174.023 32.46 174.302 30.587 193.35 30.587 192.988 32.46" fill="#bbb" opacity="0.25"/>
      <polygon points="171.652 32.46 159.799 32.46 160.016 30.587 171.921 30.587 171.652 32.46" fill="#777" opacity="0.25"/>
      <polygon points="196.789 37.073 173.337 37.073 173.609 35.24 197.163 35.24 196.789 37.073" fill="#bbb" opacity="0.25"/>
      <polygon points="170.991 37.073 161.61 37.073 161.833 35.24 171.254 35.24 170.991 37.073" fill="#777" opacity="0.25"/>
      <polygon points="27.579 35.24 18.158 35.24 17.76 33.391 27.222 33.391 27.579 35.24" fill="#777" opacity="0.25"/>
      <polygon points="33.205 64.405 24.426 64.405 24.081 62.8 32.895 62.8 33.205 64.405" fill="#777" opacity="0.25"/>
      <polygon points="191.227 41.589 172.665 41.589 172.932 39.794 191.574 39.794 191.227 41.589" fill="#bbb" opacity="0.25"/>
      <polygon points="48.11 30.587 24.3 30.587 23.925 28.697 47.839 28.697 48.11 30.587" fill="#999" opacity="0.25"/>
      <polygon points="25.064 46.009 20.472 46.009 19.714 42.48 24.345 42.48 25.064 46.009" fill="#777" opacity="0.25"/>
      <polygon points="46.396 50.338 28.219 50.338 27.878 48.617 46.13 48.617 46.396 50.338" fill="#999" opacity="0.25"/>
      <polygon points="44.769 39.794 26.127 39.794 25.768 37.984 44.49 37.984 44.769 39.794" fill="#999" opacity="0.25"/>
      <polygon points="49.177 68.362 31.795 68.362 31.483 66.789 48.934 66.789 49.177 68.362" fill="#999" opacity="0.25"/>
      <polygon points="50.194 45.132 27.186 45.132 26.836 43.368 49.942 43.368 50.194 45.132" fill="#999" opacity="0.25"/>
      <polygon points="26.121 51.193 21.586 51.193 20.847 47.751 25.419 47.751 26.121 51.193" fill="#777" opacity="0.25"/>
      <polygon points="27.152 56.249 22.673 56.249 21.952 52.892 26.468 52.892 27.152 56.249" fill="#777" opacity="0.25"/>
      <polygon points="47.944 60.368 30.209 60.368 29.884 58.731 47.691 58.731 47.944 60.368" fill="#999" opacity="0.25"/>
      <polygon points="51.668 55.415 29.226 55.415 28.893 53.736 51.427 53.736 51.668 55.415" fill="#999" opacity="0.25"/>
      <polygon points="28.158 61.182 23.733 61.182 23.029 57.907 27.49 57.907 28.158 61.182" fill="#777" opacity="0.25"/>
      <polygon points="170.344 41.589 158.743 41.589 158.95 39.794 170.602 39.794 170.344 41.589" fill="#777" opacity="0.25"/>
      <polygon points="194.967 46.009 172.007 46.009 172.268 44.252 195.325 44.252 194.967 46.009" fill="#bbb" opacity="0.25"/>
      <polygon points="169.711 46.009 160.527 46.009 160.74 44.252 169.963 44.252 169.711 46.009" fill="#777" opacity="0.25"/>
      <polygon points="189.66 61.182 163.112 61.182 163.328 59.551 189.984 59.551 189.66 61.182" fill="#bbb" opacity="0.25"/>
      <polygon points="184.333 65.997 162.475 65.997 162.686 64.405 184.632 64.405 184.333 65.997" fill="#bbb" opacity="0.25"/>
      <polygon points="186.16 56.249 163.765 56.249 163.986 54.577 186.473 54.577 186.16 56.249" fill="#bbb" opacity="0.25"/>
      <polygon points="205.881 27.746 181.914 27.746 182.55 23.899 206.729 23.899 205.881 27.746" fill="#28282c"/>
      <path d="M18.64,20.477c.168.815-.511,1.473-1.517,1.473a2.174,2.174,0,0,1-2.138-1.473c-.176-.818.5-1.483,1.514-1.483A2.17,2.17,0,0,1,18.64,20.477Z" fill="#858585" opacity="0.25"/>
      <path d="M23.513,20.477c.159.815-.527,1.473-1.533,1.473a2.145,2.145,0,0,1-2.122-1.473c-.167-.818.519-1.483,1.531-1.483A2.14,2.14,0,0,1,23.513,20.477Z" fill="#858585" opacity="0.25"/>
      <path d="M28.386,20.477c.151.815-.543,1.473-1.549,1.473a2.117,2.117,0,0,1-2.106-1.473c-.157-.818.535-1.483,1.548-1.483A2.111,2.111,0,0,1,28.386,20.477Z" fill="#858585" opacity="0.25"/>
      <polygon points="50.594 77.545 33.617 77.545 33.319 76.044 50.363 76.044 50.594 77.545" fill="#999" opacity="0.25"/>
      <polygon points="52.041 73.007 32.717 73.007 32.412 71.471 51.813 71.471 52.041 73.007" fill="#999" opacity="0.25"/>
      <polyline points="28.755 94 191.275 94 208.029 18 12.002 18 28.755 94" fill="#395bac" opacity="0.4" style="mix-blend-mode: color-dodge"/>
      <g>
        <polygon points="77.216 40.514 60.932 40.514 59.425 27.555 76.209 27.555 77.216 40.514" fill="#395bac"/>
        <polygon points="125.602 40.514 109.318 40.514 109.297 27.555 126.08 27.555 125.602 40.514" fill="#395bac"/>
        <polygon points="149.795 40.514 133.511 40.514 134.233 27.555 151.016 27.555 149.795 40.514" fill="#736673"/>
        <polygon points="78.606 58.402 63.012 58.402 61.632 46.533 77.683 46.533 78.606 58.402" fill="#67678b"/>
        <polygon points="124.941 58.402 109.348 58.402 109.328 46.533 125.38 46.533 124.941 58.402" fill="#67678b"/>
        <polygon points="148.109 58.402 132.516 58.402 133.176 46.533 149.228 46.533 148.109 58.402" fill="#68c1e8" opacity="0.8"/>
        <polygon points="79.883 74.835 64.923 74.835 63.654 63.925 79.035 63.925 79.883 74.835" fill="#68c1e8" opacity="0.8"/>
        <polygon points="102.109 74.835 87.149 74.835 86.505 63.925 101.886 63.925 102.109 74.835" fill="#736673"/>
        <polygon points="124.335 74.835 109.375 74.835 109.357 63.925 124.737 63.925 124.335 74.835" fill="#f66" opacity="0.8"/>
        <polygon points="146.561 74.835 131.601 74.835 132.208 63.925 147.589 63.925 146.561 74.835" fill="#67678b"/>
        <polygon points="81.06 89.984 66.684 89.984 65.514 79.921 80.278 79.921 81.06 89.984" fill="#67ce9d" opacity="0.8"/>
        <polygon points="102.417 89.984 88.042 89.984 87.449 79.921 102.212 79.921 102.417 89.984" fill="#395bac"/>
        <polygon points="123.775 89.984 109.4 89.984 109.383 79.921 124.147 79.921 123.775 89.984" fill="#736673"/>
        <polygon points="145.133 89.984 130.758 89.984 131.318 79.921 146.081 79.921 145.133 89.984" fill="#68c1e8" opacity="0.8"/>
        <polygon points="193.765 82.706 151.89 82.706 152.542 76.796 195.068 76.796 193.765 82.706" fill="#395bac"/>
        <polygon points="161.42 57.08 156.95 57.08 157.337 53.736 161.844 53.736 161.42 57.08" fill="#736673"/>
        <polygon points="160.797 61.993 156.381 61.993 156.759 58.731 161.211 58.731 160.797 61.993" fill="#67678b"/>
        <polygon points="160.189 66.789 155.826 66.789 156.195 63.604 160.593 63.604 160.189 66.789" fill="#67678b"/>
        <path d="M29.462,67.577c.177.867-.651,1.567-1.849,1.567a2.508,2.508,0,0,1-2.5-1.567c-.187-.871.639-1.58,1.846-1.58A2.5,2.5,0,0,1,29.462,67.577Z" fill="#3e98cc" opacity="0.5"/>
        <path d="M31.342,76.8c.168.827-.644,1.494-1.813,1.494a2.439,2.439,0,0,1-2.44-1.494c-.178-.831.632-1.507,1.811-1.507A2.429,2.429,0,0,1,31.342,76.8Z" fill="#826eb8" opacity="0.5"/>
        <path d="M30.413,72.241c.173.846-.647,1.53-1.831,1.53a2.474,2.474,0,0,1-2.472-1.53c-.183-.851.636-1.543,1.829-1.543A2.462,2.462,0,0,1,30.413,72.241Z" fill="#395bac" opacity="0.5"/>
        <polygon points="101.409 40.514 85.125 40.514 84.361 27.555 101.145 27.555 101.409 40.514" fill="#736673"/>
        <polygon points="101.773 58.402 86.18 58.402 85.48 46.533 101.532 46.533 101.773 58.402" fill="#67ce9d" opacity="0.8"/>
      </g>
      <g opacity="0.4" filter="url(#a)">
        <rect x="20" y="99.5" width="180" height="112" rx="6"/>
      </g>
      <rect x="20" y="98" width="180" height="112" rx="6" fill="#2f2f35"/>
      <path d="M53,136.33v10a2,2,0,0,1-2,2H38a2,2,0,0,1-2-2v-10a2,2,0,0,1,2-2H51A2,2,0,0,1,53,136.33Zm19.833-2h-10a2,2,0,0,0-2,2v10a2,2,0,0,0,2,2h10a2,2,0,0,0,2-2v-10A2,2,0,0,0,72.833,134.33Zm21.834,0h-10a2,2,0,0,0-2,2v10a2,2,0,0,0,2,2h10a2,2,0,0,0,2-2v-10A2,2,0,0,0,94.667,134.33Zm21.833,0h-10a2,2,0,0,0-2,2v10a2,2,0,0,0,2,2h10a2,2,0,0,0,2-2v-10A2,2,0,0,0,116.5,134.33Zm21.833,0h-10a2,2,0,0,0-2,2v10a2,2,0,0,0,2,2h10a2,2,0,0,0,2-2v-10a2,2,0,0,0-2-2Zm21.834,0h-10a2,2,0,0,0-2,2v10a2,2,0,0,0,2,2h10a2,2,0,0,0,2-2v-10A2,2,0,0,0,160.167,134.33Zm21.833,0H172a2,2,0,0,0-2,2v10a2,2,0,0,0,2,2h10a2,2,0,0,0,2-2v-10A2,2,0,0,0,182,134.33ZM48,156.66H38a2,2,0,0,0-2,2v10a2,2,0,0,0,2,2H48a2,2,0,0,0,2-2v-10A2,2,0,0,0,48,156.66Zm22.333,0h-10a2,2,0,0,0-2,2v10a2,2,0,0,0,2,2h10a2,2,0,0,0,2-2v-10A2,2,0,0,0,70.333,156.66Zm67,0H82.867a2,2,0,0,0-2,2v10a2,2,0,0,0,2,2h54.466a2,2,0,0,0,2-2v-10a2,2,0,0,0-2-2Zm22.334,0h-10a2,2,0,0,0-2,2v10a2,2,0,0,0,2,2h10a2,2,0,0,0,2-2v-10A2,2,0,0,0,159.667,156.66Zm22.333,0H172a2,2,0,0,0-2,2v10a2,2,0,0,0,2,2h10a2,2,0,0,0,2-2v-10A2,2,0,0,0,182,156.66ZM48,112H38a2,2,0,0,0-2,2v10a2,2,0,0,0,2,2H48a2,2,0,0,0,2-2V114A2,2,0,0,0,48,112Zm21.833,0h-10a2,2,0,0,0-2,2v10a2,2,0,0,0,2,2h10a2,2,0,0,0,2-2V114A2,2,0,0,0,69.833,112Zm21.834,0h-10a2,2,0,0,0-2,2v10a2,2,0,0,0,2,2h10a2,2,0,0,0,2-2V114A2,2,0,0,0,91.667,112Zm21.833,0h-10a2,2,0,0,0-2,2v10a2,2,0,0,0,2,2h10a2,2,0,0,0,2-2V114A2,2,0,0,0,113.5,112Zm21.833,0h-10a2,2,0,0,0-2,2v10a2,2,0,0,0,2,2h10a2,2,0,0,0,2-2V114a2,2,0,0,0-2-2Zm21.834,0h-10a2,2,0,0,0-2,2v10a2,2,0,0,0,2,2h10a2,2,0,0,0,2-2V114A2,2,0,0,0,157.167,112ZM182,112H169a2,2,0,0,0-2,2v10a2,2,0,0,0,2,2h13a2,2,0,0,0,2-2V114A2,2,0,0,0,182,112Z" fill="#111"/>
    </g>
  </g>
</svg>
