<svg xmlns="http://www.w3.org/2000/svg" width="220" height="220" viewBox="0 0 220 220">
  <path d="M7.444,10a6,6,0,0,0-5.863,7.275l17.392,80A6,6,0,0,0,24.836,102H195.164a6,6,0,0,0,5.863-4.725l17.392-80A6,6,0,0,0,212.555,10Z" fill="#111"/>
  <polygon points="208.027 18 191.505 94 28.494 94 12 18 208.027 18" fill="#2b2e43"/>
  <rect x="20" y="98" width="180" height="112" rx="6" fill="#2f2f35"/>
  <path d="M53,136.33v10a2,2,0,0,1-2,2H38a2,2,0,0,1-2-2v-10a2,2,0,0,1,2-2H51A2,2,0,0,1,53,136.33Zm19.833-2h-10a2,2,0,0,0-2,2v10a2,2,0,0,0,2,2h10a2,2,0,0,0,2-2v-10A2,2,0,0,0,72.833,134.33Zm21.834,0h-10a2,2,0,0,0-2,2v10a2,2,0,0,0,2,2h10a2,2,0,0,0,2-2v-10A2,2,0,0,0,94.667,134.33Zm21.833,0h-10a2,2,0,0,0-2,2v10a2,2,0,0,0,2,2h10a2,2,0,0,0,2-2v-10A2,2,0,0,0,116.5,134.33Zm21.833,0h-10a2,2,0,0,0-2,2v10a2,2,0,0,0,2,2h10a2,2,0,0,0,2-2v-10A2,2,0,0,0,138.333,134.33Zm21.834,0h-10a2,2,0,0,0-2,2v10a2,2,0,0,0,2,2h10a2,2,0,0,0,2-2v-10A2,2,0,0,0,160.167,134.33Zm21.833,0H172a2,2,0,0,0-2,2v10a2,2,0,0,0,2,2h10a2,2,0,0,0,2-2v-10A2,2,0,0,0,182,134.33ZM48,156.66H38a2,2,0,0,0-2,2v10a2,2,0,0,0,2,2H48a2,2,0,0,0,2-2v-10A2,2,0,0,0,48,156.66Zm22.333,0h-10a2,2,0,0,0-2,2v10a2,2,0,0,0,2,2h10a2,2,0,0,0,2-2v-10A2,2,0,0,0,70.333,156.66Zm67,0H82.867a2,2,0,0,0-2,2v10a2,2,0,0,0,2,2h54.466a2,2,0,0,0,2-2v-10A2,2,0,0,0,137.333,156.66Zm22.334,0h-10a2,2,0,0,0-2,2v10a2,2,0,0,0,2,2h10a2,2,0,0,0,2-2v-10A2,2,0,0,0,159.667,156.66Zm22.333,0H172a2,2,0,0,0-2,2v10a2,2,0,0,0,2,2h10a2,2,0,0,0,2-2v-10A2,2,0,0,0,182,156.66ZM48,112H38a2,2,0,0,0-2,2v10a2,2,0,0,0,2,2H48a2,2,0,0,0,2-2V114A2,2,0,0,0,48,112Zm21.833,0h-10a2,2,0,0,0-2,2v10a2,2,0,0,0,2,2h10a2,2,0,0,0,2-2V114A2,2,0,0,0,69.833,112Zm21.834,0h-10a2,2,0,0,0-2,2v10a2,2,0,0,0,2,2h10a2,2,0,0,0,2-2V114A2,2,0,0,0,91.667,112Zm21.833,0h-10a2,2,0,0,0-2,2v10a2,2,0,0,0,2,2h10a2,2,0,0,0,2-2V114A2,2,0,0,0,113.5,112Zm21.833,0h-10a2,2,0,0,0-2,2v10a2,2,0,0,0,2,2h10a2,2,0,0,0,2-2V114A2,2,0,0,0,135.333,112Zm21.834,0h-10a2,2,0,0,0-2,2v10a2,2,0,0,0,2,2h10a2,2,0,0,0,2-2V114A2,2,0,0,0,157.167,112ZM182,112H169a2,2,0,0,0-2,2v10a2,2,0,0,0,2,2h13a2,2,0,0,0,2-2V114A2,2,0,0,0,182,112Z" fill="#111"/>
</svg>
