<svg xmlns="http://www.w3.org/2000/svg" xmlns:xlink="http://www.w3.org/1999/xlink" width="220" height="220" viewBox="0 0 220 220">
  <defs>
    <filter id="a" name="blur">
      <feGaussianBlur stdDeviation="0.9"/>
    </filter>
  </defs>
  <g style="isolation: isolate">
    <g>
      <path d="M7.446,10a6,6,0,0,0-5.863,7.275l17.392,80A6,6,0,0,0,24.838,102H195.166a6,6,0,0,0,5.863-4.725l17.391-80A6,6,0,0,0,212.557,10Z" fill="#111"/>
      <polygon points="191.275 94 28.755 94 12.002 18 208.029 18 191.275 94" fill="#28282c"/>
      <polygon points="69.385 94 28.755 94 12.002 18 61.009 18 69.385 94" fill="#2f2f36"/>
      <polygon points="61.659 23.899 13.302 23.899 13.088 22.927 61.552 22.927 61.659 23.899" fill="#28282c"/>
      <polygon points="64.573 50.338 19.13 50.338 18.941 49.479 64.478 49.479 64.573 50.338" fill="#28282c"/>
      <polygon points="67.156 73.771 24.296 73.771 24.128 73.007 67.072 73.007 67.156 73.771" fill="#28282c"/>
      <polygon points="68.141 82.706 26.266 82.706 24.963 76.796 67.489 76.796 68.141 82.706" fill="#fff" opacity="0.1"/>
      <polygon points="50.749 32.46 31.784 32.46 31.443 30.587 50.491 30.587 50.749 32.46" fill="#bbb" opacity="0.25"/>
      <polygon points="29.413 32.46 17.56 32.46 17.157 30.587 29.062 30.587 29.413 32.46" fill="#777" opacity="0.25"/>
      <polygon points="56.075 37.073 32.623 37.073 32.29 35.24 55.843 35.24 56.075 37.073" fill="#bbb" opacity="0.25"/>
      <polygon points="30.278 37.073 20.897 37.073 20.513 35.24 29.934 35.24 30.278 37.073" fill="#777" opacity="0.25"/>
      <polygon points="52.007 41.589 33.444 41.589 33.118 39.794 51.76 39.794 52.007 41.589" fill="#bbb" opacity="0.25"/>
      <polygon points="31.124 41.589 19.522 41.589 19.136 39.794 30.788 39.794 31.124 41.589" fill="#777" opacity="0.25"/>
      <polygon points="57.208 46.009 34.248 46.009 33.929 44.252 56.985 44.252 57.208 46.009" fill="#bbb" opacity="0.25"/>
      <polygon points="31.952 46.009 22.768 46.009 22.4 44.252 31.623 44.252 31.952 46.009" fill="#777" opacity="0.25"/>
      <polygon points="56.919 61.182 30.37 61.182 30.047 59.551 56.703 59.551 56.919 61.182" fill="#bbb" opacity="0.25"/>
      <polygon points="53.184 65.997 31.326 65.997 31.01 64.405 52.956 64.405 53.184 65.997" fill="#bbb" opacity="0.25"/>
      <polygon points="51.787 56.249 29.392 56.249 29.06 54.577 51.548 54.577 51.787 56.249" fill="#bbb" opacity="0.25"/>
      <polygon points="62.083 27.746 38.117 27.746 37.481 23.899 61.659 23.899 62.083 27.746" fill="#28282c"/>
      <path d="M18.64,20.477c.168.815-.511,1.473-1.517,1.473a2.174,2.174,0,0,1-2.138-1.473c-.176-.818.5-1.483,1.514-1.483A2.17,2.17,0,0,1,18.64,20.477Z" fill="#858585" opacity="0.25"/>
      <path d="M23.513,20.477c.159.815-.527,1.473-1.533,1.473a2.145,2.145,0,0,1-2.122-1.473c-.167-.818.519-1.483,1.531-1.483A2.14,2.14,0,0,1,23.513,20.477Z" fill="#858585" opacity="0.25"/>
      <path d="M28.386,20.477c.151.815-.543,1.473-1.549,1.473a2.117,2.117,0,0,1-2.106-1.473c-.157-.818.535-1.483,1.548-1.483A2.111,2.111,0,0,1,28.386,20.477Z" fill="#858585" opacity="0.25"/>
      <polygon points="130.33 94 69.385 94 61.552 22.927 134.247 22.927 130.33 94" fill="#736673" opacity="0.8"/>
      <polygon points="195.359 32.46 143.205 32.46 143.349 30.587 195.731 30.587 195.359 32.46" fill="#bbb" opacity="0.25"/>
      <polygon points="184.902 37.984 142.778 37.984 142.919 36.159 185.224 36.159 184.902 37.984" fill="#bbb" opacity="0.25"/>
      <path d="M119.258,43.368H73.047l-.157-1.779H119.3ZM124.3,30.587H105.254l.02,1.873h18.965ZM86.513,36.159h-14.1l.161,1.825H86.613Zm32.553,15.885H73.812l.149,1.692h45.068Zm4.7-5.162h-50.4l.153,1.735h50.195Zm-5.021,19.907H75.112l.139,1.573h43.456Zm1.927,9.255H75.928l.132,1.5h44.566Zm2.281-4.573H75.525l.135,1.536H122.9Zm-4.606,13.405H76.707l.126,1.433h41.478Zm4.307-4.365H76.322l.129,1.466H122.6Zm.613-18.518H74.689l.142,1.611H123.21ZM121.19,57.08H74.256l.146,1.651h46.743Z" fill="#67678b" opacity="0.4" style="mix-blend-mode: multiply"/>
      <polygon points="193.195 43.368 142.363 43.368 142.5 41.589 193.548 41.589 193.195 43.368" fill="#bbb" opacity="0.25"/>
      <polygon points="183.027 48.617 141.958 48.617 142.092 46.882 183.333 46.882 183.027 48.617" fill="#bbb" opacity="0.25"/>
      <polygon points="172.087 60.368 141.051 60.368 141.178 58.731 172.34 58.731 172.087 60.368" fill="#bbb" opacity="0.25"/>
      <g opacity="0.4" filter="url(#a)">
        <rect x="18.939" y="96.939" width="180" height="112" rx="6"/>
      </g>
      <rect x="20" y="98" width="180" height="112" rx="6" fill="#2f2f35"/>
      <path d="M53,136.33v10a2,2,0,0,1-2,2H38a2,2,0,0,1-2-2v-10a2,2,0,0,1,2-2H51A2,2,0,0,1,53,136.33Zm19.833-2h-10a2,2,0,0,0-2,2v10a2,2,0,0,0,2,2h10a2,2,0,0,0,2-2v-10A2,2,0,0,0,72.833,134.33Zm21.834,0h-10a2,2,0,0,0-2,2v10a2,2,0,0,0,2,2h10a2,2,0,0,0,2-2v-10A2,2,0,0,0,94.667,134.33Zm21.833,0h-10a2,2,0,0,0-2,2v10a2,2,0,0,0,2,2h10a2,2,0,0,0,2-2v-10A2,2,0,0,0,116.5,134.33Zm21.833,0h-10a2,2,0,0,0-2,2v10a2,2,0,0,0,2,2h10a2,2,0,0,0,2-2v-10a2,2,0,0,0-2-2Zm21.834,0h-10a2,2,0,0,0-2,2v10a2,2,0,0,0,2,2h10a2,2,0,0,0,2-2v-10A2,2,0,0,0,160.167,134.33Zm21.833,0H172a2,2,0,0,0-2,2v10a2,2,0,0,0,2,2h10a2,2,0,0,0,2-2v-10A2,2,0,0,0,182,134.33ZM48,156.66H38a2,2,0,0,0-2,2v10a2,2,0,0,0,2,2H48a2,2,0,0,0,2-2v-10A2,2,0,0,0,48,156.66Zm22.333,0h-10a2,2,0,0,0-2,2v10a2,2,0,0,0,2,2h10a2,2,0,0,0,2-2v-10A2,2,0,0,0,70.333,156.66Zm67,0H82.867a2,2,0,0,0-2,2v10a2,2,0,0,0,2,2h54.466a2,2,0,0,0,2-2v-10a2,2,0,0,0-2-2Zm22.334,0h-10a2,2,0,0,0-2,2v10a2,2,0,0,0,2,2h10a2,2,0,0,0,2-2v-10A2,2,0,0,0,159.667,156.66Zm22.333,0H172a2,2,0,0,0-2,2v10a2,2,0,0,0,2,2h10a2,2,0,0,0,2-2v-10A2,2,0,0,0,182,156.66ZM48,112H38a2,2,0,0,0-2,2v10a2,2,0,0,0,2,2H48a2,2,0,0,0,2-2V114A2,2,0,0,0,48,112Zm21.833,0h-10a2,2,0,0,0-2,2v10a2,2,0,0,0,2,2h10a2,2,0,0,0,2-2V114A2,2,0,0,0,69.833,112Zm21.834,0h-10a2,2,0,0,0-2,2v10a2,2,0,0,0,2,2h10a2,2,0,0,0,2-2V114A2,2,0,0,0,91.667,112Zm21.833,0h-10a2,2,0,0,0-2,2v10a2,2,0,0,0,2,2h10a2,2,0,0,0,2-2V114A2,2,0,0,0,113.5,112Zm21.833,0h-10a2,2,0,0,0-2,2v10a2,2,0,0,0,2,2h10a2,2,0,0,0,2-2V114a2,2,0,0,0-2-2Zm21.834,0h-10a2,2,0,0,0-2,2v10a2,2,0,0,0,2,2h10a2,2,0,0,0,2-2V114A2,2,0,0,0,157.167,112ZM182,112H169a2,2,0,0,0-2,2v10a2,2,0,0,0,2,2h13a2,2,0,0,0,2-2V114A2,2,0,0,0,182,112Z" fill="#111"/>
      <polygon points="135.65 63.373 124.47 65.197 138.125 69.197 135.65 63.373" fill="#28282c"/>
      <polygon points="120.896 22.927 133.553 35.529 137.187 26.719 134.247 20.472 120.896 22.927" fill="#28282c"/>
      <polygon points="120.896 22.927 120.896 35.529 133.553 35.529 120.896 22.927" fill="#736673"/>
      <polygon points="124.47 65.197 66.206 65.197 69.385 94 130.33 94 131.8 67.344 124.47 65.197" fill="#736673" opacity="0.2" style="mix-blend-mode: multiply"/>
      <polygon points="110.015 22.927 64.573 50.338 61.552 22.927 110.015 22.927" fill="#736673" opacity="0.1" style="mix-blend-mode: multiply"/>
      <polygon points="191.275 94 28.755 94 12.002 18 208.029 18 191.275 94" fill="#395bac" opacity="0.4" style="mix-blend-mode: color-dodge"/>
      <g>
        <polygon points="27.322 57.08 22.852 57.08 22.133 53.736 26.64 53.736 27.322 57.08" fill="#736673"/>
        <polygon points="28.323 61.993 23.908 61.993 23.206 58.731 27.658 58.731 28.323 61.993" fill="#67678b"/>
        <polygon points="29.301 66.789 24.938 66.789 24.254 63.604 28.652 63.604 29.301 66.789" fill="#67678b"/>
      </g>
      <polygon points="175.28 61.182 173.068 61.182 173.582 57.907 175.813 57.907 175.28 61.182" fill="#395bac"/>
    </g>
  </g>
</svg>
