<svg xmlns="http://www.w3.org/2000/svg" width="128" height="128" viewBox="0 0 128 128">
  <path d="M31.332,52.717,80.6,24.274a15.992,15.992,0,0,0,4,6.929L35.376,59.62A16.018,16.018,0,0,0,31.332,52.717ZM84.6,96.8,35.376,68.38a16.018,16.018,0,0,1-4.044,6.9L80.6,103.726A15.992,15.992,0,0,1,84.6,96.8ZM96,36a15.905,15.905,0,0,1-4-.527V92.527a15.444,15.444,0,0,1,8,0V35.473A15.905,15.905,0,0,1,96,36Z" fill="#111"/>
  <path d="M20,52A12,12,0,1,1,8,64,12.013,12.013,0,0,1,20,52m0-8A20,20,0,1,0,40,64,20,20,0,0,0,20,44ZM96,8A12,12,0,1,1,84,20,12.013,12.013,0,0,1,96,8m0-8a20,20,0,1,0,20,20A20,20,0,0,0,96,0Zm0,96a12,12,0,1,1-12,12A12.013,12.013,0,0,1,96,96m0-8a20,20,0,1,0,20,20A20,20,0,0,0,96,88Z" fill="#5c93e5"/>
</svg>
