<svg xmlns="http://www.w3.org/2000/svg" width="128" height="128" viewBox="0 0 128 128">
  <path d="M32.905,52.964l47.121-27.2a16.971,16.971,0,0,0,3,5.2L35.938,58.141A17.01,17.01,0,0,0,32.905,52.964ZM83.023,97.043,35.938,69.859a17.01,17.01,0,0,1-3.033,5.177l47.121,27.205A16.971,16.971,0,0,1,83.023,97.043ZM96,37a17.052,17.052,0,0,1-3-.281V91.281a16.155,16.155,0,0,1,6,0V36.719A17.052,17.052,0,0,1,96,37Z" fill="#101012"/>
  <path d="M20,44A20,20,0,1,0,40,64,20,20,0,0,0,20,44Zm0,34A14,14,0,1,1,34,64,14.015,14.015,0,0,1,20,78ZM96,88a20,20,0,1,0,20,20A20,20,0,0,0,96,88Zm0,34a14,14,0,1,1,14-14A14.015,14.015,0,0,1,96,122Zm0-82A20,20,0,1,0,76,20,20,20,0,0,0,96,40ZM96,6A14,14,0,1,1,82,20,14.015,14.015,0,0,1,96,6Z" fill="#5c93e5"/>
</svg>
