<svg xmlns="http://www.w3.org/2000/svg" width="500" height="220" viewBox="0 0 500 220">
  <rect x="120" y="40" width="20" height="20" fill="#e6e6e6"/>
  <rect x="120" y="60" width="20" height="20" fill="#e6e6e6"/>
  <rect x="120" y="80" width="20" height="20" fill="#e6e6e6"/>
  <rect x="120" y="100" width="20" height="20" fill="#e6e6e6"/>
  <rect x="120" y="120" width="20" height="20" fill="#e6e6e6"/>
  <rect x="120" y="140" width="20" height="20" fill="#e6e6e6"/>
  <rect x="200" y="40" width="20" height="20" fill="#e6e6e6"/>
  <rect x="200" y="60" width="20" height="20" fill="#e6e6e6"/>
  <rect x="200" y="80" width="20" height="20" fill="#e6e6e6"/>
  <rect x="200" y="100" width="20" height="20" fill="#e6e6e6"/>
  <rect x="200" y="120" width="20" height="20" fill="#e6e6e6"/>
  <rect x="200" y="140" width="20" height="20" fill="#e6e6e6"/>
  <rect x="120" y="160" width="20" height="20" fill="#e6e6e6"/>
  <rect x="140" y="160" width="20" height="20" fill="#e6e6e6"/>
  <rect x="160" y="160" width="20" height="20" fill="#e6e6e6"/>
  <rect x="180" y="160" width="20" height="20" fill="#e6e6e6"/>
  <rect x="140" y="40" width="20" height="20" fill="#e6e6e6"/>
  <rect x="160" y="40" width="20" height="20" fill="#e6e6e6"/>
  <rect x="180" y="40" width="20" height="20" fill="#e6e6e6"/>
  <rect x="200" y="160" width="20" height="20" fill="#e6e6e6"/>
  <rect x="280" y="40" width="20" height="20" fill="#e6e6e6"/>
  <rect x="280" y="60" width="20" height="20" fill="#e6e6e6"/>
  <rect x="280" y="80" width="20" height="20" fill="#e6e6e6"/>
  <rect x="280" y="100" width="20" height="20" fill="#e6e6e6"/>
  <rect x="280" y="120" width="20" height="20" fill="#e6e6e6"/>
  <rect x="280" y="140" width="20" height="20" fill="#e6e6e6"/>
  <rect x="360" y="40" width="20" height="20" fill="#e6e6e6"/>
  <rect x="360" y="60" width="20" height="20" fill="#e6e6e6"/>
  <rect x="360" y="80" width="20" height="20" fill="#e6e6e6"/>
  <rect x="360" y="100" width="20" height="20" fill="#e6e6e6"/>
  <rect x="360" y="120" width="20" height="20" fill="#e6e6e6"/>
  <rect x="360" y="140" width="20" height="20" fill="#e6e6e6"/>
  <rect x="280" y="160" width="20" height="20" fill="#e6e6e6"/>
  <rect x="300" y="160" width="20" height="20" fill="#e6e6e6"/>
  <rect x="320" y="160" width="20" height="20" fill="#e6e6e6"/>
  <rect x="340" y="160" width="20" height="20" fill="#e6e6e6"/>
  <rect x="300" y="40" width="20" height="20" fill="#e6e6e6"/>
  <rect x="320" y="40" width="20" height="20" fill="#e6e6e6"/>
  <rect x="340" y="40" width="20" height="20" fill="#e6e6e6"/>
  <rect x="360" y="160" width="20" height="20" fill="#e6e6e6"/>
  <rect width="500" height="20" fill="#e6e6e6"/>
  <rect y="200" width="500" height="20" fill="#e6e6e6"/>
  <rect x="480" y="20" width="20" height="180" fill="#e6e6e6"/>
  <rect y="20" width="20" height="180" fill="#e6e6e6"/>
</svg>
